<svg id="Layer_1" data-name="Layer 1" xmlns="http://www.w3.org/2000/svg" width="491" height="178" viewBox="0 0 491 178"><defs><style>.cls-1{fill:#fff;}.cls-2{fill:#400d01;}</style></defs><path class="cls-1" d="M168.65,10q-35.81,0-35.8,69.05V97.34q0,32.8,9.46,51.39t27.95,18.59q25.41,0,46.66-49.42h4.15l-1.61,51.5h-2.54a14.07,14.07,0,0,0-2.54-3.58,4.89,4.89,0,0,0-3.35-1q-2.21,0-16.75,3.58a123.08,123.08,0,0,1-29.56,3.58q-37.65,0-58.32-20.32T85.73,90.53q0-40.77,21.59-62.94T165.41,5.42A107.19,107.19,0,0,1,193,9q13.52,3.57,15.82,3.58a5.07,5.07,0,0,0,3.47-1A14.26,14.26,0,0,0,214.84,8h2.54l1.85,50.12h-4.16q-10.4-23.32-21.36-35.69T168.65,10Z"/><path class="cls-1" d="M400.53,86q0,47.58-26.79,66.29-24.72,17.33-67.9,17.32H240.47v-4.39h15.25V12.34H240.47V8h71.37q44.36,0,66.52,18.13T400.53,86Zm-99.78,79.22h8.78q23.33,0,33.38-16.51t10-55.32V80q0-52-19.86-62.59-9.48-5.09-26.79-5.09h-5.55Z"/><path class="cls-2" d="M77.58,61.58q-9,0-9,15.29v4q0,7.28,2.37,11.38a7.62,7.62,0,0,0,7,4.12q6.36,0,11.69-11h1l-.41,11.41h-.63a3.4,3.4,0,0,0-.64-.79,1.33,1.33,0,0,0-.84-.23,37.47,37.47,0,0,0-4.2.79,34.65,34.65,0,0,1-7.4.8q-9.43,0-14.62-4.51T56.8,79.4q0-9,5.41-13.94t14.56-4.91a30.23,30.23,0,0,1,6.92.8,32.49,32.49,0,0,0,4,.79,1.41,1.41,0,0,0,.87-.23,3.25,3.25,0,0,0,.63-.8h.64l.46,11.11h-1a30.57,30.57,0,0,0-5.35-7.91A8.68,8.68,0,0,0,77.58,61.58Z"/><path class="cls-2" d="M98.39,94q-3.73-3.39-3.74-9.46t4.2-9.28a17,17,0,0,1,10.68-3.23q13.13,0,12.61,11.67H105.82v2c0,3.34.48,5.87,1.45,7.57s2.64,2.56,5,2.56q6.72,0,8.8-6.34l1,.15a10.42,10.42,0,0,1-4,5.73c-1.91,1.36-4.78,2-8.6,2C104.61,97.44,100.87,96.3,98.39,94Zm7.49-11.33h6V80.2a19.1,19.1,0,0,0-.55-5.66,2.15,2.15,0,0,0-2.2-1.51,2.56,2.56,0,0,0-2.43,1.62,13.9,13.9,0,0,0-.78,5.55Z"/><path class="cls-2" d="M140.43,73a3.76,3.76,0,0,0-3.65,2.46q-1.09,2.46-1.1,8.13v2.66q0,5.07,1.28,7.27c.85,1.46,2.41,2.2,4.69,2.2a7.35,7.35,0,0,0,5.44-2,9.46,9.46,0,0,0,2.6-4.66l1,.11a10.13,10.13,0,0,1-4,6.34q-3,2-8.28,2-6.71,0-10.3-3.2t-3.59-9.36q0-6.16,4.08-9.49T140,72.06q5.15,0,7.87,1.77a5.5,5.5,0,0,1,1.42,8.31,5,5,0,0,1-3.59,1.23A5.83,5.83,0,0,1,142,82.29a3.77,3.77,0,0,1-1.39-3.17,6.2,6.2,0,0,1,.29-1.84h1.91a5.1,5.1,0,0,0,.41-1.84C143.21,73.8,142.28,73,140.43,73Z"/><path class="cls-2" d="M152,72.57h14.18V96h3.24v.92H152.18V96h3.18V73.49H152ZM160.69,69c-2.05,0-3.51-.46-4.37-1.38A4.79,4.79,0,0,1,155,64.24a4.45,4.45,0,0,1,1.42-3.38,6.1,6.1,0,0,1,4.31-1.33,6.93,6.93,0,0,1,4.4,1.2,4.15,4.15,0,0,1,1.51,3.43,4.6,4.6,0,0,1-1.45,3.55A6.5,6.5,0,0,1,160.69,69Z"/><path class="cls-2" d="M170.29,58.56h14.18V96h3.24v.92H170.52V96h3.19V59.48h-3.42Z"/><path class="cls-2" d="M188.58,72.57h14.18V96H206v.92H188.81V96H192V73.49h-3.41ZM197.32,69c-2,0-3.5-.46-4.37-1.38a4.78,4.78,0,0,1-1.3-3.42,4.44,4.44,0,0,1,1.41-3.38,6.12,6.12,0,0,1,4.32-1.33,6.92,6.92,0,0,1,4.39,1.2,4.12,4.12,0,0,1,1.51,3.43,4.56,4.56,0,0,1-1.45,3.55A6.48,6.48,0,0,1,197.32,69Z"/><path class="cls-2" d="M211.18,94q-3.74-3.39-3.74-9.46t4.2-9.28a17,17,0,0,1,10.68-3.23q13.14,0,12.61,11.67H218.61v2c0,3.34.49,5.87,1.45,7.57s2.64,2.56,5,2.56q6.71,0,8.79-6.34l1,.15a10.42,10.42,0,0,1-4,5.73c-1.91,1.36-4.77,2-8.59,2Q214.91,97.44,211.18,94Zm7.49-11.33h6V80.2a19.1,19.1,0,0,0-.55-5.66,2.14,2.14,0,0,0-2.2-1.51,2.56,2.56,0,0,0-2.43,1.62,13.9,13.9,0,0,0-.78,5.55Z"/><path class="cls-2" d="M288.18,78.41q0,10.53-6.72,14.68-6.18,3.84-17,3.83H248.07V96h3.82V62.09h-3.82v-1H266q11.12,0,16.67,4T288.18,78.41ZM263.18,96h2.2q5.83,0,8.36-3.66T276.26,80v-3q0-11.52-5-13.87a16.08,16.08,0,0,0-6.72-1.12h-1.38Z"/><path class="cls-2" d="M290.9,72.57h14.18V96h3.24v.92H291.13V96h3.18V73.49H290.9ZM299.64,69c-2.05,0-3.51-.46-4.37-1.38A4.79,4.79,0,0,1,294,64.24a4.45,4.45,0,0,1,1.42-3.38,6.1,6.1,0,0,1,4.31-1.33,6.93,6.93,0,0,1,4.4,1.2,4.15,4.15,0,0,1,1.51,3.43,4.6,4.6,0,0,1-1.45,3.55A6.48,6.48,0,0,1,299.64,69Z"/><path class="cls-2" d="M309.59,72.57h14v4.71a8.51,8.51,0,0,1,2.83-3.79c1.28-.95,3.2-1.43,5.79-1.43q9,0,9,8.55V96h3.24v.92H328V96h2.38V79.38a10.47,10.47,0,0,0-.47-4,1.73,1.73,0,0,0-1.68-.89A4,4,0,0,0,325,76.67a9.28,9.28,0,0,0-1.41,5.21V96H326v.92H309.59V96h3.18V73.49h-3.18Z"/><path class="cls-2" d="M346.45,97.44V88.28h.7q1.5,4.45,4.05,6.24a10.84,10.84,0,0,0,6.37,1.79q5.9,0,5.9-3.32A2.28,2.28,0,0,0,362,90.84a21.2,21.2,0,0,0-5.79-1.74,24.22,24.22,0,0,1-6.59-2.46,6.24,6.24,0,0,1-3.19-5.83,8,8,0,0,1,2.78-6.37,11,11,0,0,1,7.41-2.38,15.94,15.94,0,0,1,5.85,1.18,5.38,5.38,0,0,0,1.67.41,1.44,1.44,0,0,0,1-.36,5.72,5.72,0,0,0,1-1.33h.64v7.83h-.7q-2.94-6.66-9.14-6.65a7.74,7.74,0,0,0-4.05.84,2.46,2.46,0,0,0-1.33,2.12,1.7,1.7,0,0,0,.4,1.21c.27.29.48.5.64.64a3,3,0,0,0,.75.43l.87.36,1.07.33a10.25,10.25,0,0,0,1.07.26A48.07,48.07,0,0,1,362,80.84a19.18,19.18,0,0,1,3.3,1.56q3.18,1.93,3.18,6.26a7.75,7.75,0,0,1-2.89,6.55,12.73,12.73,0,0,1-7.93,2.23A17,17,0,0,1,350.74,96a2.46,2.46,0,0,0-1.1-.41c-.85,0-1.68.63-2.49,1.9Z"/><path class="cls-2" d="M374.26,94q-3.74-3.39-3.73-9.46t4.19-9.28a17,17,0,0,1,10.68-3.23q13.14,0,12.62,11.67H381.7v2c0,3.34.48,5.87,1.45,7.57s2.64,2.56,5,2.56q6.72,0,8.8-6.34l1,.15a10.44,10.44,0,0,1-4,5.73c-1.91,1.36-4.77,2-8.59,2Q378,97.44,374.26,94Zm7.5-11.33h6V80.2a19.46,19.46,0,0,0-.55-5.66A2.15,2.15,0,0,0,385,73a2.56,2.56,0,0,0-2.43,1.62,13.9,13.9,0,0,0-.78,5.55Z"/><path class="cls-2" d="M400.22,72.57h13.95v4.71A8.51,8.51,0,0,1,417,73.49q1.9-1.42,5.79-1.43,9,0,9,8.55V96H435v.92H418.62V96H421V79.38a10.54,10.54,0,0,0-.46-4,1.73,1.73,0,0,0-1.68-.89,4,4,0,0,0-3.27,2.15,9.28,9.28,0,0,0-1.41,5.21V96h2.48v.92H400.22V96h3.18V73.49h-3.18Z"/></svg>