<svg id="Layer_1" data-name="Layer 1" xmlns="http://www.w3.org/2000/svg" width="928" height="925" viewBox="0 0 928 925"><defs><style>.cls-1{fill:#400d02;}.cls-2{fill:#fff;}</style></defs><rect class="cls-1" x="246" y="21" width="70" height="891"/><path class="cls-2" d="M47,248.23q2.9-2.14,8.7-2.15c3.86,0,6.84.72,8.92,2.15a7.34,7.34,0,0,1,3.13,6.45,12.11,12.11,0,0,1-.25,2.53,6.71,6.71,0,0,1-1.13,2.35c-.58.81-1.15,1.54-1.7,2.17a20.44,20.44,0,0,1-2.82,2.5q-3,2.4-6.3,4.78l-3.85,2.77-3,2.2h12q3.45,0,4.9-1.5a9.1,9.1,0,0,0,2-4.7h.85l-.5,13.85H44.41v-5.8l5.05-4.65a38.67,38.67,0,0,0,7.3-8.37,15.78,15.78,0,0,0,2.15-8.1q0-4.43-.95-6.05a3.4,3.4,0,0,0-3.2-1.63,3.8,3.8,0,0,0-3.15,1.15,3.63,3.63,0,0,0-.9,2.2,5.24,5.24,0,0,0,.3,1.85h1.5a7.26,7.26,0,0,1,.4,2.53,3.28,3.28,0,0,1-1.25,2.55,4.94,4.94,0,0,1-3.3,1.07,4,4,0,0,1-3.18-1.32,5,5,0,0,1-1.12-3.33A6.57,6.57,0,0,1,47,248.23Z"/><path class="cls-2" d="M86.23,282.13q-7.28,0-11-4.9t-3.77-13.7q0-8.79,4-13.12t11.07-4.33q7,0,11,4.3t4,13.7q0,9.41-4,13.73T86.23,282.13Zm-4.57-19.9v4.45q0,4.86.07,6.85a24.69,24.69,0,0,0,.53,4.15,4.13,4.13,0,0,0,1.45,2.78,4.38,4.38,0,0,0,2.35.62,10,10,0,0,0,2-.15,2.66,2.66,0,0,0,1.2-.62,7.56,7.56,0,0,0,.88-.95,4.14,4.14,0,0,0,.57-1.48c.15-.66.28-1.28.38-1.85a19.88,19.88,0,0,0,.2-2.5c.06-2.13.1-4.28.1-6.45v-4.4q0-9.8-.73-12.67c-.48-1.92-1.86-2.88-4.12-2.88s-3.65,1-4.15,3S81.66,256.1,81.66,262.23Z"/><path class="cls-2" d="M109.46,247.93l-5.5.7-.1-1,11.3-1.55h4v34.6h3.9v.95h-18.9v-.95h5.25Z"/><path class="cls-2" d="M139.75,269.93q0-4.74-.82-6.65c-.55-1.26-1.79-1.9-3.72-1.9a12.26,12.26,0,0,0-6.36,2.15l-.85-.4V247.18l.8-.6q3.06.45,9.25,1.08t7.18.62a1.82,1.82,0,0,0,1.4-.47,4.1,4.1,0,0,0,.72-1.63l.75.1c-.5,5.1-1.14,8.14-1.95,9.1a2.08,2.08,0,0,1-1.65.75,21.42,21.42,0,0,1-4.2-.85l-10.9-2.85-.25,9.7a15.86,15.86,0,0,1,7.56-1.95,20.5,20.5,0,0,1,6.5.88,9.28,9.28,0,0,1,4,2.42,10.35,10.35,0,0,1,2.64,7.15,10.23,10.23,0,0,1-3.82,8.43q-3.83,3.07-10.53,3.07a14.88,14.88,0,0,1-6.65-1.5,6.83,6.83,0,0,1-2.67-2.42,6.58,6.58,0,0,1-1-3.65,5,5,0,0,1,1.18-3.43,4.08,4.08,0,0,1,3.25-1.35,4.75,4.75,0,0,1,3.25,1,3.35,3.35,0,0,1,1.17,2.65,7.58,7.58,0,0,1-.45,2.77H131.9a5.62,5.62,0,0,0-.3,1.88,3.14,3.14,0,0,0,3.36,3,4.85,4.85,0,0,0,2.5-.52,3.76,3.76,0,0,0,1.29-1.28,6.83,6.83,0,0,0,.71-2.35A62.63,62.63,0,0,0,139.75,269.93Z"/><path class="cls-2" d="M162.85,267.73v-1.5h12.6v1.5Z"/><path class="cls-2" d="M191.6,248.23q2.91-2.14,8.7-2.15c3.87,0,6.84.72,8.93,2.15a7.33,7.33,0,0,1,3.12,6.45,11.47,11.47,0,0,1-.25,2.53,6.51,6.51,0,0,1-1.12,2.35c-.59.81-1.15,1.54-1.7,2.17a20.06,20.06,0,0,1-2.83,2.5q-3,2.4-6.3,4.78l-3.85,2.77-3.05,2.2h12c2.3,0,3.94-.5,4.9-1.5a9,9,0,0,0,2-4.7h.85l-.5,13.85h-23.5v-5.8l5-4.65a38.12,38.12,0,0,0,7.3-8.37,15.68,15.68,0,0,0,2.15-8.1c0-3-.31-5-1-6.05a3.39,3.39,0,0,0-3.2-1.63,3.8,3.8,0,0,0-3.15,1.15,3.63,3.63,0,0,0-.9,2.2,5.24,5.24,0,0,0,.3,1.85h1.5a7,7,0,0,1,.4,2.53,3.25,3.25,0,0,1-1.25,2.55,4.9,4.9,0,0,1-3.3,1.07,3.94,3.94,0,0,1-3.17-1.32,5,5,0,0,1-1.13-3.33A6.59,6.59,0,0,1,191.6,248.23Z"/><path class="cls-2" d="M230.88,282.13q-7.27,0-11-4.9t-3.78-13.7q0-8.79,4-13.12t11.08-4.33q7,0,11,4.3t4,13.7q0,9.41-4.05,13.73T230.88,282.13Zm-4.58-19.9v4.45q0,4.86.08,6.85a24.65,24.65,0,0,0,.52,4.15,4.17,4.17,0,0,0,1.45,2.78,4.41,4.41,0,0,0,2.35.62,10.14,10.14,0,0,0,2-.15,2.66,2.66,0,0,0,1.2-.62,6.76,6.76,0,0,0,.87-.95,4,4,0,0,0,.58-1.48c.15-.66.27-1.28.37-1.85a18.13,18.13,0,0,0,.2-2.5q.11-3.19.1-6.45v-4.4q0-9.8-.72-12.67c-.49-1.92-1.86-2.88-4.13-2.88s-3.65,1-4.15,3S226.3,256.1,226.3,262.23Z"/><path class="cls-2" d="M254.1,247.93l-5.5.7-.1-1,11.3-1.55h4.05v34.6h3.9v.95h-18.9v-.95h5.25Z"/><path class="cls-2" d="M276.5,280.66A4.86,4.86,0,0,1,275,277a9.9,9.9,0,0,1,1.48-4.8,62.12,62.12,0,0,1,6.42-8.38l8.25-9.55H278.3c-2.37,0-3.92.29-4.67.88s-1.35,2-1.78,4.17h-.8l.55-12.7H294V252l-5.55,9.7a72.47,72.47,0,0,0-4.72,9.38,15.58,15.58,0,0,0-1,5.37,8,8,0,0,0,1.5,4.7l-.35.6a13,13,0,0,1-3.1.35A5.92,5.92,0,0,1,276.5,280.66Z"/><path class="cls-2" d="M143,98.23q2.89-2.15,8.7-2.15c3.86,0,6.84.72,8.92,2.15a7.34,7.34,0,0,1,3.13,6.45,12.11,12.11,0,0,1-.25,2.53,6.71,6.71,0,0,1-1.13,2.35c-.58.81-1.15,1.54-1.7,2.17a20.44,20.44,0,0,1-2.82,2.5q-3,2.4-6.3,4.78l-3.85,2.77-3,2.2h12q3.45,0,4.9-1.5a9.1,9.1,0,0,0,2.05-4.7h.85l-.5,13.85h-23.5v-5.8l5.05-4.65a38.67,38.67,0,0,0,7.3-8.37,15.78,15.78,0,0,0,2.15-8.1q0-4.42-.95-6a3.4,3.4,0,0,0-3.2-1.63,3.8,3.8,0,0,0-3.15,1.15,3.63,3.63,0,0,0-.9,2.2,5.24,5.24,0,0,0,.3,1.85h1.5a7.26,7.26,0,0,1,.4,2.53,3.28,3.28,0,0,1-1.25,2.55,4.94,4.94,0,0,1-3.3,1.07,4,4,0,0,1-3.18-1.32,5,5,0,0,1-1.12-3.33A6.57,6.57,0,0,1,143,98.23Z"/><path class="cls-2" d="M182.23,132.13q-7.28,0-11-4.9t-3.77-13.7q0-8.79,4.05-13.12t11.07-4.33q7,0,11.05,4.3t4,13.7q0,9.4-4.05,13.73T182.23,132.13Zm-4.57-19.9v4.45q0,4.86.07,6.85a24.69,24.69,0,0,0,.53,4.15,4.13,4.13,0,0,0,1.45,2.78,4.38,4.38,0,0,0,2.35.62,10,10,0,0,0,2-.15,2.66,2.66,0,0,0,1.2-.62,7.56,7.56,0,0,0,.88-.95,4.14,4.14,0,0,0,.57-1.48c.15-.66.28-1.28.38-1.85a19.88,19.88,0,0,0,.2-2.5c.06-2.13.1-4.28.1-6.45v-4.4q0-9.8-.73-12.67c-.48-1.92-1.86-2.88-4.12-2.88s-3.65,1-4.15,3S177.66,106.1,177.66,112.23Z"/><path class="cls-2" d="M203.76,98.23q2.9-2.15,8.7-2.15c3.86,0,6.84.72,8.92,2.15a7.34,7.34,0,0,1,3.13,6.45,12.11,12.11,0,0,1-.25,2.53,6.71,6.71,0,0,1-1.13,2.35c-.58.81-1.15,1.54-1.7,2.17a20.44,20.44,0,0,1-2.82,2.5q-3,2.4-6.3,4.78l-3.85,2.77-3.05,2.2h12q3.45,0,4.9-1.5a9.1,9.1,0,0,0,2.05-4.7h.85l-.5,13.85h-23.5v-5.8l5-4.65a38.67,38.67,0,0,0,7.3-8.37,15.78,15.78,0,0,0,2.15-8.1q0-4.42-1-6a3.4,3.4,0,0,0-3.2-1.63,3.8,3.8,0,0,0-3.15,1.15,3.63,3.63,0,0,0-.9,2.2,5.24,5.24,0,0,0,.3,1.85h1.5a7.26,7.26,0,0,1,.4,2.53,3.28,3.28,0,0,1-1.25,2.55,4.94,4.94,0,0,1-3.3,1.07,4,4,0,0,1-3.18-1.32,5,5,0,0,1-1.12-3.33A6.57,6.57,0,0,1,203.76,98.23Z"/><path class="cls-2" d="M233.05,97.93l-5.5.7-.09-1,11.29-1.55h4.05v34.6h3.91v.95H227.8v-.95h5.25Z"/><path class="cls-2" d="M259.45,117.73v-1.5h12.6v1.5Z"/><path class="cls-2" d="M46.78,595.73c1.93-1.43,4.84-2.15,8.7-2.15s6.84.72,8.93,2.15a7.33,7.33,0,0,1,3.12,6.45,11.47,11.47,0,0,1-.25,2.53,6.51,6.51,0,0,1-1.12,2.35c-.59.81-1.15,1.54-1.7,2.17a20.66,20.66,0,0,1-2.83,2.5q-3,2.4-6.3,4.78l-3.85,2.77-3,2.2h12c2.3,0,3.94-.5,4.9-1.5a9,9,0,0,0,2-4.7h.85l-.5,13.85H44.23v-5.8l5.05-4.65a38.39,38.39,0,0,0,7.3-8.37,15.78,15.78,0,0,0,2.15-8.1q0-4.43-.95-6.05a3.39,3.39,0,0,0-3.2-1.63,3.8,3.8,0,0,0-3.15,1.15,3.63,3.63,0,0,0-.9,2.2,5.24,5.24,0,0,0,.3,1.85h1.5a7,7,0,0,1,.4,2.53,3.28,3.28,0,0,1-1.25,2.55,4.9,4.9,0,0,1-3.3,1.07A3.93,3.93,0,0,1,45,604.56a5,5,0,0,1-1.13-3.33A6.59,6.59,0,0,1,46.78,595.73Z"/><path class="cls-2" d="M86.06,629.63q-7.28,0-11-4.9T71.23,611q0-8.79,4-13.12t11.08-4.33q7,0,11,4.3t4,13.7q0,9.4-4.05,13.73T86.06,629.63Zm-4.58-19.9v4.45q0,4.86.08,6.85a24.65,24.65,0,0,0,.52,4.15A4.13,4.13,0,0,0,83.53,628a4.41,4.41,0,0,0,2.35.62,10.14,10.14,0,0,0,2-.15,2.66,2.66,0,0,0,1.2-.62,6.76,6.76,0,0,0,.87-.95,4.12,4.12,0,0,0,.58-1.48c.15-.67.27-1.28.37-1.85a18.28,18.28,0,0,0,.2-2.5q.11-3.19.1-6.45v-4.4q0-9.79-.72-12.67c-.49-1.92-1.86-2.88-4.13-2.88s-3.65,1-4.15,3S81.48,603.6,81.48,609.73Z"/><path class="cls-2" d="M109.28,595.43l-5.5.7-.1-1,11.3-1.55h4v34.6h3.9v1H104v-1h5.25Z"/><path class="cls-2" d="M130.53,595.43l-5.5.7-.1-1,11.3-1.55h4.05v34.6h3.9v1h-18.9v-1h5.25Z"/><path class="cls-2" d="M156.93,615.23v-1.5h12.6v1.5Z"/><path class="cls-2" d="M185.68,595.73q2.9-2.15,8.7-2.15c3.86,0,6.84.72,8.92,2.15a7.31,7.31,0,0,1,3.13,6.45,12.11,12.11,0,0,1-.25,2.53,6.54,6.54,0,0,1-1.13,2.35c-.58.81-1.15,1.54-1.7,2.17a20.44,20.44,0,0,1-2.82,2.5q-3,2.4-6.3,4.78l-3.85,2.77-3,2.2h12q3.45,0,4.9-1.5a9.1,9.1,0,0,0,2.05-4.7h.85l-.5,13.85h-23.5v-5.8l5.05-4.65a38.67,38.67,0,0,0,7.3-8.37,15.78,15.78,0,0,0,2.15-8.1q0-4.43-.95-6.05a3.4,3.4,0,0,0-3.2-1.63,3.8,3.8,0,0,0-3.15,1.15,3.63,3.63,0,0,0-.9,2.2,5.24,5.24,0,0,0,.3,1.85h1.5a7.26,7.26,0,0,1,.4,2.53,3.28,3.28,0,0,1-1.25,2.55,4.94,4.94,0,0,1-3.3,1.07,4,4,0,0,1-3.18-1.32,5,5,0,0,1-1.12-3.33A6.57,6.57,0,0,1,185.68,595.73Z"/><path class="cls-2" d="M225,629.63q-7.27,0-11-4.9T210.13,611q0-8.79,4.05-13.12t11.07-4.33q7,0,11.05,4.3t4,13.7q0,9.4-4.05,13.73T225,629.63Zm-4.57-19.9v4.45q0,4.86.07,6.85a24.69,24.69,0,0,0,.53,4.15,4.13,4.13,0,0,0,1.45,2.78,4.38,4.38,0,0,0,2.35.62,10,10,0,0,0,2-.15,2.66,2.66,0,0,0,1.2-.62,7.56,7.56,0,0,0,.88-.95,4.14,4.14,0,0,0,.57-1.48c.15-.67.28-1.28.38-1.85a20.06,20.06,0,0,0,.2-2.5c.06-2.13.1-4.28.1-6.45v-4.4q0-9.79-.73-12.67c-.48-1.92-1.86-2.88-4.12-2.88s-3.65,1-4.15,3S220.38,603.6,220.38,609.73Z"/><path class="cls-2" d="M248.18,595.43l-5.5.7-.1-1,11.3-1.55h4.05v34.6h3.9v1h-18.9v-1h5.25Z"/><path class="cls-2" d="M272.18,629.13v-1h4.7v-8H263.33v-.95l14.1-25.1h8.65V619H291v-4.35h1v9.25h-1v-3.7h-4.95v8h3.45v1ZM264.93,619h11.95V597.93Z"/><path class="cls-2" d="M29.78,756.73c1.93-1.43,4.84-2.15,8.7-2.15s6.84.72,8.93,2.15a7.33,7.33,0,0,1,3.12,6.45,11.47,11.47,0,0,1-.25,2.53,6.51,6.51,0,0,1-1.12,2.35c-.59.81-1.15,1.54-1.7,2.17a20.66,20.66,0,0,1-2.83,2.5q-3,2.4-6.3,4.78l-3.85,2.77-3,2.2h12c2.3,0,3.94-.5,4.9-1.5a9,9,0,0,0,2.05-4.7h.85l-.5,13.85H27.23v-5.8l5.05-4.65a38.39,38.39,0,0,0,7.3-8.37,15.78,15.78,0,0,0,2.15-8.1q0-4.43-.95-6.05a3.39,3.39,0,0,0-3.2-1.63,3.8,3.8,0,0,0-3.15,1.15,3.63,3.63,0,0,0-.9,2.2,5.24,5.24,0,0,0,.3,1.85h1.5a7,7,0,0,1,.4,2.53,3.28,3.28,0,0,1-1.25,2.55,4.9,4.9,0,0,1-3.3,1.07A3.93,3.93,0,0,1,28,765.56a5,5,0,0,1-1.13-3.33A6.59,6.59,0,0,1,29.78,756.73Z"/><path class="cls-2" d="M69.06,790.63q-7.28,0-11.05-4.9T54.23,772q0-8.79,4.05-13.12t11.08-4.33q7,0,11,4.3t4,13.7q0,9.4-4.05,13.73T69.06,790.63Zm-4.58-19.9v4.45q0,4.86.08,6.85a24.65,24.65,0,0,0,.52,4.15A4.13,4.13,0,0,0,66.53,789a4.41,4.41,0,0,0,2.35.62,10.14,10.14,0,0,0,2-.15,2.66,2.66,0,0,0,1.2-.62,6.76,6.76,0,0,0,.87-.95,4.12,4.12,0,0,0,.58-1.48c.15-.67.27-1.28.37-1.85a18.28,18.28,0,0,0,.2-2.5q.11-3.19.1-6.45v-4.4q0-9.79-.72-12.67c-.49-1.92-1.86-2.88-4.13-2.88s-3.65,1-4.15,3S64.48,764.6,64.48,770.73Z"/><path class="cls-2" d="M102.26,790.63q-7.28,0-11.05-4.9T87.43,772q0-8.79,4-13.12t11.08-4.33q7,0,11,4.3t4,13.7q0,9.4-4,13.73T102.26,790.63Zm-4.58-19.9v4.45q0,4.86.08,6.85a24.65,24.65,0,0,0,.52,4.15A4.13,4.13,0,0,0,99.73,789a4.41,4.41,0,0,0,2.35.62,10.14,10.14,0,0,0,2-.15,2.66,2.66,0,0,0,1.2-.62,6.76,6.76,0,0,0,.87-.95,4.12,4.12,0,0,0,.58-1.48c.15-.67.27-1.28.37-1.85a18.28,18.28,0,0,0,.2-2.5q.11-3.19.1-6.45v-4.4q0-9.79-.72-12.67c-.49-1.92-1.86-2.88-4.13-2.88s-3.65,1-4.15,3S97.68,764.6,97.68,770.73Z"/><path class="cls-2" d="M128.23,790.13v-1h4.7v-8H119.38v-.95l14.1-25.1h8.65V780h5v-4.35H148v9.25h-.95v-3.7h-5v8h3.45v1ZM121,780h12V758.93Z"/><path class="cls-2" d="M160.78,776.23v-1.5h12.6v1.5Z"/><path class="cls-2" d="M189.53,756.73q2.9-2.15,8.7-2.15c3.86,0,6.84.72,8.92,2.15a7.31,7.31,0,0,1,3.13,6.45,11.47,11.47,0,0,1-.25,2.53,6.54,6.54,0,0,1-1.13,2.35c-.58.81-1.15,1.54-1.7,2.17a20.44,20.44,0,0,1-2.82,2.5q-3,2.4-6.3,4.78l-3.85,2.77-3,2.2h12q3.45,0,4.9-1.5a9.1,9.1,0,0,0,2-4.7H211l-.5,13.85H187v-5.8l5.05-4.65a38.67,38.67,0,0,0,7.3-8.37,15.78,15.78,0,0,0,2.15-8.1q0-4.43-.95-6.05a3.4,3.4,0,0,0-3.2-1.63,3.8,3.8,0,0,0-3.15,1.15,3.63,3.63,0,0,0-.9,2.2,5.24,5.24,0,0,0,.3,1.85h1.5a7.26,7.26,0,0,1,.4,2.53,3.28,3.28,0,0,1-1.25,2.55,4.94,4.94,0,0,1-3.3,1.07,4,4,0,0,1-3.18-1.32,5,5,0,0,1-1.12-3.33A6.57,6.57,0,0,1,189.53,756.73Z"/><path class="cls-2" d="M228.8,790.63q-7.28,0-11.05-4.9T214,772q0-8.79,4.05-13.12t11.07-4.33q7,0,11.05,4.3t4,13.7q0,9.4-4.05,13.73T228.8,790.63Zm-4.57-19.9v4.45q0,4.86.07,6.85a24.69,24.69,0,0,0,.53,4.15,4.13,4.13,0,0,0,1.45,2.78,4.38,4.38,0,0,0,2.35.62,10,10,0,0,0,2-.15,2.66,2.66,0,0,0,1.2-.62,7.56,7.56,0,0,0,.88-.95,4.14,4.14,0,0,0,.57-1.48c.15-.67.28-1.28.38-1.85a20.06,20.06,0,0,0,.2-2.5c.06-2.13.1-4.28.1-6.45v-4.4q0-9.79-.73-12.67c-.48-1.92-1.86-2.88-4.12-2.88s-3.65,1-4.15,3S224.23,764.6,224.23,770.73Z"/><path class="cls-2" d="M252,756.43l-5.5.7-.1-1,11.3-1.55h4v34.6h3.9v1h-18.9v-1H252Z"/><path class="cls-2" d="M273.28,756.43l-5.5.7-.1-1,11.3-1.55h4v34.6h3.9v1H268v-1h5.25Z"/><path class="cls-2" d="M42.78,419.73c1.93-1.43,4.84-2.15,8.7-2.15s6.84.72,8.93,2.15a7.33,7.33,0,0,1,3.12,6.45,11.47,11.47,0,0,1-.25,2.53,6.51,6.51,0,0,1-1.12,2.35c-.59.81-1.15,1.54-1.7,2.17a20.66,20.66,0,0,1-2.83,2.5q-3,2.4-6.3,4.78l-3.85,2.77-3,2.2h12c2.3,0,3.94-.5,4.9-1.5a9,9,0,0,0,2.05-4.7h.85l-.5,13.85H40.23v-5.8l5.05-4.65a38.39,38.39,0,0,0,7.3-8.37,15.78,15.78,0,0,0,2.15-8.1q0-4.43-.95-6a3.39,3.39,0,0,0-3.2-1.63,3.8,3.8,0,0,0-3.15,1.15,3.63,3.63,0,0,0-.9,2.2,5.24,5.24,0,0,0,.3,1.85h1.5a7,7,0,0,1,.4,2.53,3.28,3.28,0,0,1-1.25,2.55,4.9,4.9,0,0,1-3.3,1.07A3.93,3.93,0,0,1,41,428.56a5,5,0,0,1-1.13-3.33A6.59,6.59,0,0,1,42.78,419.73Z"/><path class="cls-2" d="M82.06,453.63q-7.28,0-11-4.9T67.23,435q0-8.79,4-13.12t11.08-4.33q7,0,11,4.3t4,13.7q0,9.41-4.05,13.73T82.06,453.63Zm-4.58-19.9v4.45q0,4.86.08,6.85a24.65,24.65,0,0,0,.52,4.15A4.13,4.13,0,0,0,79.53,452a4.41,4.41,0,0,0,2.35.62,10.14,10.14,0,0,0,2-.15,2.66,2.66,0,0,0,1.2-.62,6.76,6.76,0,0,0,.87-.95,4.12,4.12,0,0,0,.58-1.48c.15-.67.27-1.28.37-1.85a18.28,18.28,0,0,0,.2-2.5q.11-3.19.1-6.45v-4.4q0-9.8-.72-12.67c-.49-1.92-1.86-2.88-4.13-2.88s-3.65,1-4.15,2.95S77.48,427.6,77.48,433.73Z"/><path class="cls-2" d="M105.28,419.43l-5.5.7-.1-1,11.3-1.55h4v34.6h3.9v.95H100v-.95h5.25Z"/><path class="cls-2" d="M129.28,453.13v-.95H134v-8H120.43v-.95l14.1-25.1h8.65V443h4.95v-4.35h1v9.25h-1v-3.7h-4.95v8h3.45v.95ZM122,443H134V421.93Z"/><path class="cls-2" d="M161.83,439.23v-1.5h12.6v1.5Z"/><path class="cls-2" d="M190.58,419.73q2.89-2.14,8.7-2.15c3.86,0,6.84.72,8.92,2.15a7.31,7.31,0,0,1,3.13,6.45,11.47,11.47,0,0,1-.25,2.53,6.54,6.54,0,0,1-1.13,2.35c-.58.81-1.15,1.54-1.7,2.17a20.44,20.44,0,0,1-2.82,2.5q-3,2.4-6.3,4.78l-3.85,2.77-3.05,2.2h12q3.45,0,4.9-1.5a9,9,0,0,0,2.05-4.7H212l-.5,13.85H188v-5.8l5.05-4.65a38.39,38.39,0,0,0,7.3-8.37,15.78,15.78,0,0,0,2.15-8.1q0-4.43-.95-6a3.39,3.39,0,0,0-3.2-1.63,3.8,3.8,0,0,0-3.15,1.15,3.63,3.63,0,0,0-.9,2.2,5.24,5.24,0,0,0,.3,1.85h1.5a7.26,7.26,0,0,1,.4,2.53,3.28,3.28,0,0,1-1.25,2.55,4.9,4.9,0,0,1-3.3,1.07,4,4,0,0,1-3.18-1.32,5,5,0,0,1-1.12-3.33A6.57,6.57,0,0,1,190.58,419.73Z"/><path class="cls-2" d="M229.85,453.63q-7.28,0-11-4.9T215,435q0-8.79,4.05-13.12t11.07-4.33q7,0,11,4.3t4,13.7q0,9.41-4,13.73T229.85,453.63Zm-4.57-19.9v4.45q0,4.86.07,6.85a24.69,24.69,0,0,0,.53,4.15,4.13,4.13,0,0,0,1.45,2.78,4.38,4.38,0,0,0,2.35.62,10,10,0,0,0,2-.15,2.66,2.66,0,0,0,1.2-.62,7.56,7.56,0,0,0,.88-.95,4.14,4.14,0,0,0,.57-1.48c.15-.67.28-1.28.38-1.85a20.06,20.06,0,0,0,.2-2.5c.06-2.13.1-4.28.1-6.45v-4.4q0-9.8-.73-12.67c-.48-1.92-1.86-2.88-4.12-2.88s-3.65,1-4.15,2.95S225.28,427.6,225.28,433.73Z"/><path class="cls-2" d="M253.08,419.43l-5.5.7-.1-1,11.3-1.55h4.05v34.6h3.9v.95h-18.9v-.95h5.25Z"/><path class="cls-2" d="M283.38,441.43a18.57,18.57,0,0,0-.83-6.65c-.55-1.26-1.79-1.9-3.72-1.9a12.23,12.23,0,0,0-6.35,2.15l-.85-.4V418.68l.8-.6q3,.45,9.25,1.08t7.17.62a1.82,1.82,0,0,0,1.4-.47,4.08,4.08,0,0,0,.73-1.63l.75.1c-.5,5.1-1.15,8.14-2,9.1a2.11,2.11,0,0,1-1.65.75,21.15,21.15,0,0,1-4.2-.85L273,423.93l-.25,9.7a15.82,15.82,0,0,1,7.55-1.95,20.46,20.46,0,0,1,6.5.88,9.28,9.28,0,0,1,4,2.42,10.36,10.36,0,0,1,2.65,7.15,10.23,10.23,0,0,1-3.83,8.43q-3.82,3.07-10.52,3.07a14.85,14.85,0,0,1-6.65-1.5,6.86,6.86,0,0,1-2.68-2.42,6.57,6.57,0,0,1-1-3.65,5,5,0,0,1,1.17-3.43,4.08,4.08,0,0,1,3.25-1.35,4.75,4.75,0,0,1,3.25,1,3.35,3.35,0,0,1,1.18,2.65,7.62,7.62,0,0,1-.45,2.77h-1.65a5.37,5.37,0,0,0-.3,1.88,3.08,3.08,0,0,0,.85,2.05,3.13,3.13,0,0,0,2.5,1,4.83,4.83,0,0,0,2.5-.52,3.89,3.89,0,0,0,1.3-1.28,6.86,6.86,0,0,0,.7-2.35A59.78,59.78,0,0,0,283.38,441.43Z"/><path class="cls-1" d="M348.33,280.29h3V256.05h-3v-1.84h9.44v1.84h-3v10.88H369V256.05h-3v-1.84h9.44v1.84h-3v24.24h3v1.84H366v-1.84h3v-11.4h-14.2v11.4h3v1.84h-9.44Z"/><path class="cls-1" d="M379.81,280.29h3V256.05h-3v-1.84h20.64v6.72h-2.88v-4.76H386.25v11.2h7.92v-3.2h2.4v8.36h-2.4v-3.2h-7.92v11h3.8v1.84H379.81Z"/><path class="cls-1" d="M414.13,280.29h3V256.05h-3v-1.84h20.64v6.72h-2.88v-4.76H420.57v10.6h7.92v-3.2h2.4v8.36h-2.4v-3.2h-7.92v11.44h11.72v-5.12h2.88v7.08h-21Z"/><path class="cls-1" d="M439.37,280.29h3V263.41h-3v-1.92h3v-3.24a7,7,0,0,1,.48-2.64,6.17,6.17,0,0,1,1.34-2.06,6.08,6.08,0,0,1,2-1.34,6.81,6.81,0,0,1,2.58-.48,6.09,6.09,0,0,1,3.42.84,2.68,2.68,0,0,1,1.26,2.38,2.29,2.29,0,0,1-.58,1.65,2,2,0,0,1-1.5.61,1.88,1.88,0,0,1-2-1.92,1.79,1.79,0,0,1,1.08-1.84v-.08a4.89,4.89,0,0,0-.64-.12c-.24,0-.51,0-.8,0a3,3,0,0,0-2.56,1.21,5.6,5.6,0,0,0-.88,3.37v3.7h4.48v1.92h-4.48v16.88h3.76v1.84h-10Z"/><path class="cls-1" d="M459.33,282.37a3.93,3.93,0,0,1-2.92-.86,4.32,4.32,0,0,1-.8-2.95V263.41H453v-1.92h.36a6,6,0,0,0,1.34-.12,2.19,2.19,0,0,0,.8-.34,1.22,1.22,0,0,0,.44-.56,6.46,6.46,0,0,0,.26-.78l.92-3.56h1.8v5.36h5.32v1.92h-5.32v16.76h5.32v1.32a3.83,3.83,0,0,1-.9.36,10.67,10.67,0,0,1-1.2.28q-.66.12-1.38.18C460.25,282.35,459.78,282.37,459.33,282.37Z"/><path class="cls-1" d="M476.53,282.61a9.52,9.52,0,0,1-3.94-.78,8.2,8.2,0,0,1-2.94-2.18,9.66,9.66,0,0,1-1.84-3.4,14.39,14.39,0,0,1-.64-4.44,13,13,0,0,1,.7-4.38,10.93,10.93,0,0,1,1.92-3.42,8.37,8.37,0,0,1,2.9-2.22,8.64,8.64,0,0,1,3.68-.78,8.79,8.79,0,0,1,3.64.72,7.58,7.58,0,0,1,2.7,2,9.43,9.43,0,0,1,1.7,3.11,12.47,12.47,0,0,1,.6,3.94v.92h-14.2v1a7.86,7.86,0,0,0,1.7,5.33,5.72,5.72,0,0,0,4.54,1.95,6.84,6.84,0,0,0,3.94-1,7.2,7.2,0,0,0,2.3-2.65l1.32.84a9,9,0,0,1-1.1,2,7.92,7.92,0,0,1-1.7,1.72,8.6,8.6,0,0,1-2.32,1.19A8.88,8.88,0,0,1,476.53,282.61Zm-5.72-12.72h10.76v-.4a10.72,10.72,0,0,0-.3-2.6,5.92,5.92,0,0,0-.94-2.08,4.7,4.7,0,0,0-1.62-1.38,5.12,5.12,0,0,0-2.34-.5,5.65,5.65,0,0,0-2.4.48,4.84,4.84,0,0,0-1.74,1.36,6.19,6.19,0,0,0-1.06,2.06,8.84,8.84,0,0,0-.36,2.58Z"/><path class="cls-1" d="M488.81,280.29h3v-16.2l-3-.52v-1.36L495,261v3.6h.2a9.57,9.57,0,0,1,.7-1.28,5.66,5.66,0,0,1,1-1.16,5.35,5.35,0,0,1,1.44-.84,5.29,5.29,0,0,1,1.9-.32,4.42,4.42,0,0,1,2.82.84,2.93,2.93,0,0,1,1.06,2.44,2.74,2.74,0,0,1-.6,1.88,2,2,0,0,1-1.56.68,2.45,2.45,0,0,1-1.72-.58,1.9,1.9,0,0,1-.64-1.5,2.26,2.26,0,0,1,.34-1.3,1.29,1.29,0,0,1,.78-.58v-.08l-.4-.06-.6,0a3.73,3.73,0,0,0-1.68.42,5.75,5.75,0,0,0-2.58,2.58,3.73,3.73,0,0,0-.42,1.68v12.88h3.76v1.84h-10Z"/><path class="cls-1" d="M514.61,282.61a6.74,6.74,0,0,1-3.28-.77,4.06,4.06,0,0,1-1.84-1.71h-.16v2h-2.4v-6.2h2.4v.85a3.81,3.81,0,0,0,1.08,2.82,4.86,4.86,0,0,0,3.56,1.09,6.44,6.44,0,0,0,3.54-.82,3,3,0,0,0,1.26-2.64c0-1.89-1.13-3.08-3.4-3.59l-2.4-.53a8.68,8.68,0,0,1-4.46-2.15,5.67,5.67,0,0,1-1.5-4.16,5.19,5.19,0,0,1,1.88-4.25,7.68,7.68,0,0,1,5-1.54,7.27,7.27,0,0,1,3.14.59,3.12,3.12,0,0,1,1.62,1.53h.16v-1.64h2.4v6.2h-2.4v-1.53q0-3.23-4.48-3.23a5.5,5.5,0,0,0-3.18.79,2.79,2.79,0,0,0-1.14,2.48,3.27,3.27,0,0,0,.92,2.36,4.9,4.9,0,0,0,2.52,1.31l2.24.48a9.3,9.3,0,0,1,4.62,2.12,5.4,5.4,0,0,1,1.54,4.11,5.74,5.74,0,0,1-.5,2.38,5.45,5.45,0,0,1-1.44,1.91,6.66,6.66,0,0,1-2.28,1.28A9.29,9.29,0,0,1,514.61,282.61Z"/><path class="cls-1" d="M525.45,280.29h3V254.81l-3-.52v-1.4l6.24-1.16v28.56h3v1.84h-9.2Z"/><path class="cls-1" d="M544.17,282.61a6.11,6.11,0,0,1-4.5-1.6,5.62,5.62,0,0,1-1.62-4.2,7.53,7.53,0,0,1,.48-2.8,4.41,4.41,0,0,1,1.58-2,7.77,7.77,0,0,1,2.86-1.16,20.83,20.83,0,0,1,4.28-.38h3v-2.6a5.43,5.43,0,0,0-1.18-3.74,4.58,4.58,0,0,0-3.54-1.3,9.56,9.56,0,0,0-1.92.18,4.92,4.92,0,0,0-1.44.5v.08a3.26,3.26,0,0,1,.86.72,2,2,0,0,1,.42,1.36,2.13,2.13,0,0,1-.6,1.62,2.47,2.47,0,0,1-3.18,0,2.23,2.23,0,0,1-.62-1.74,3.13,3.13,0,0,1,.52-1.7,5.15,5.15,0,0,1,1.48-1.46,8.32,8.32,0,0,1,2.38-1,12.59,12.59,0,0,1,3.22-.38,6.73,6.73,0,0,1,2.28.36,5.72,5.72,0,0,1,1.72,1,4.63,4.63,0,0,1,1.14,1.4,5.16,5.16,0,0,1,.54,1.68h.24a5.88,5.88,0,0,1,2.26-3.16,6.86,6.86,0,0,1,4.14-1.24,7.83,7.83,0,0,1,3.58.78,7.6,7.6,0,0,1,2.58,2.12,9.45,9.45,0,0,1,1.56,3.18,14.41,14.41,0,0,1,.52,4v1.12H553.53v.56a7.9,7.9,0,0,0,1.7,5.36,5.7,5.7,0,0,0,4.54,2,8.68,8.68,0,0,0,2.12-.22,4.87,4.87,0,0,0,1.52-.64,4.34,4.34,0,0,0,1.1-1,12.06,12.06,0,0,0,.9-1.42l1.32.84a10.33,10.33,0,0,1-1,2,6.16,6.16,0,0,1-1.5,1.6,6.94,6.94,0,0,1-2.12,1.08,9.15,9.15,0,0,1-2.86.4,8.51,8.51,0,0,1-2.7-.4,7.51,7.51,0,0,1-2.14-1.06,6.83,6.83,0,0,1-1.56-1.52,5.71,5.71,0,0,1-.92-1.78h-.24a6,6,0,0,1-2.7,3.64A9.47,9.47,0,0,1,544.17,282.61Zm1.4-2.2a5.42,5.42,0,0,0,3.28-1,3.48,3.48,0,0,0,1.36-3v-4.32h-2.6a13.62,13.62,0,0,0-2.88.26,4.91,4.91,0,0,0-1.84.78,3.06,3.06,0,0,0-1,1.24,4.34,4.34,0,0,0-.3,1.68v1.24a2.75,2.75,0,0,0,1,2.32A4.63,4.63,0,0,0,545.57,280.41Zm8-10h10.24v-.68a13.13,13.13,0,0,0-.26-2.64,7.43,7.43,0,0,0-.82-2.18,4.25,4.25,0,0,0-1.5-1.48,4.47,4.47,0,0,0-2.26-.54,5.23,5.23,0,0,0-2.36.5,4.91,4.91,0,0,0-1.68,1.38,6.22,6.22,0,0,0-1,2.08,9.4,9.4,0,0,0-.34,2.6Z"/><path class="cls-1" d="M579.45,290.61a19.8,19.8,0,0,1-4.08-.36,8.82,8.82,0,0,1-2.72-1,4,4,0,0,1-1.5-1.56,4.39,4.39,0,0,1-.46-2,3.08,3.08,0,0,1,.36-1.47,4.24,4.24,0,0,1,1-1.2,6.52,6.52,0,0,1,1.36-.89,7.53,7.53,0,0,1,1.56-.58v-.16a3.38,3.38,0,0,1-2.52-3.42,3.25,3.25,0,0,1,1-2.53,5.59,5.59,0,0,1,2.38-1.29v-.2a6.74,6.74,0,0,1-3-2.36,6.37,6.37,0,0,1-1.1-3.76,6.62,6.62,0,0,1,.58-2.82,6,6,0,0,1,1.64-2.14,7.72,7.72,0,0,1,2.5-1.36,9.93,9.93,0,0,1,3.16-.48,9.31,9.31,0,0,1,3.22.5,8.77,8.77,0,0,1,2.26,1.22,4.58,4.58,0,0,1,.9-3.16,2.78,2.78,0,0,1,2-.84,2.14,2.14,0,0,1,1.46.52,1.79,1.79,0,0,1,.58,1.4,1.87,1.87,0,0,1-.54,1.38,2,2,0,0,1-1.5.54,2,2,0,0,1-1.72-.8h-.12v2a11.3,11.3,0,0,1,.92,1.56,5.56,5.56,0,0,1,.48,2.48,6.6,6.6,0,0,1-.6,2.84,6,6,0,0,1-1.66,2.16,7.63,7.63,0,0,1-2.52,1.36,10.19,10.19,0,0,1-3.18.48,9,9,0,0,1-2.12-.24,4.27,4.27,0,0,0-1.88.87,2,2,0,0,0-.84,1.59,1.46,1.46,0,0,0,.76,1.42,5.86,5.86,0,0,0,2.56.4h4.72a8,8,0,0,1,5.22,1.42,5,5,0,0,1,1.7,4,5.43,5.43,0,0,1-2.6,4.71Q584.52,290.61,579.45,290.61Zm-5.84-5.12a2.59,2.59,0,0,0,1.38,2.4,7.39,7.39,0,0,0,3.7.8h1.88a9.27,9.27,0,0,0,4.7-1A3,3,0,0,0,587,285a2.71,2.71,0,0,0-1-2.3,6.31,6.31,0,0,0-3.64-.78h-6.24a4.11,4.11,0,0,0-1.86,1.48A3.79,3.79,0,0,0,573.61,285.49Zm6-12.56a4.32,4.32,0,0,0,3.3-1.16,4.4,4.4,0,0,0,1.1-3.16v-1.56a4.44,4.44,0,0,0-1.1-3.16,5.27,5.27,0,0,0-6.6,0,4.44,4.44,0,0,0-1.1,3.16v1.56a4.4,4.4,0,0,0,1.1,3.16A4.31,4.31,0,0,0,579.65,272.93Z"/><path class="cls-1" d="M598.81,282.37a3.92,3.92,0,0,1-2.92-.86,4.27,4.27,0,0,1-.8-2.95V263.41h-2.64v-1.92h.36a6,6,0,0,0,1.34-.12,2.19,2.19,0,0,0,.8-.34,1.28,1.28,0,0,0,.44-.56,6.46,6.46,0,0,0,.26-.78l.92-3.56h1.8v5.36h5.32v1.92h-5.32v16.76h5.32v1.32a3.83,3.83,0,0,1-.9.36,10.67,10.67,0,0,1-1.2.28q-.66.12-1.38.18C599.73,282.35,599.26,282.37,598.81,282.37Z"/><path class="cls-1" d="M616,282.61a9.52,9.52,0,0,1-3.94-.78,8.2,8.2,0,0,1-2.94-2.18,9.5,9.5,0,0,1-1.84-3.4,14.39,14.39,0,0,1-.64-4.44,13,13,0,0,1,.7-4.38,10.73,10.73,0,0,1,1.92-3.42,8.37,8.37,0,0,1,2.9-2.22,8.61,8.61,0,0,1,3.68-.78,8.79,8.79,0,0,1,3.64.72,7.67,7.67,0,0,1,2.7,2,9.43,9.43,0,0,1,1.7,3.11,12.47,12.47,0,0,1,.6,3.94v.92h-14.2v1a7.81,7.81,0,0,0,1.7,5.33,5.71,5.71,0,0,0,4.54,1.95,6.84,6.84,0,0,0,3.94-1,7.2,7.2,0,0,0,2.3-2.65l1.32.84a9,9,0,0,1-1.1,2,7.92,7.92,0,0,1-1.7,1.72,8.6,8.6,0,0,1-2.32,1.19A8.88,8.88,0,0,1,616,282.61Zm-5.72-12.72h10.76v-.4a10.72,10.72,0,0,0-.3-2.6,5.92,5.92,0,0,0-.94-2.08,4.7,4.7,0,0,0-1.62-1.38,5.15,5.15,0,0,0-2.34-.5,5.65,5.65,0,0,0-2.4.48,4.68,4.68,0,0,0-1.74,1.36,6.19,6.19,0,0,0-1.06,2.06,8.84,8.84,0,0,0-.36,2.58Z"/><path class="cls-1" d="M628.29,280.29h3v-16.2l-3-.52v-1.36l6.16-1.2v3.6h.16a5,5,0,0,1,.74-1.24,5.77,5.77,0,0,1,1.24-1.16,7.06,7.06,0,0,1,1.74-.86,7,7,0,0,1,2.2-.34q3.72,0,5.34,1.94t1.62,5.82v11.52h3v1.84h-9.2v-1.84h3V269.05c0-3.84-1.62-5.76-4.84-5.76a6.41,6.41,0,0,0-1.74.24,4.72,4.72,0,0,0-1.56.76,4,4,0,0,0-1.12,1.28,3.68,3.68,0,0,0-.42,1.8v12.92h3v1.84h-9.2Z"/><path class="cls-1" d="M346.33,109.29h3V85.05h-3V83.21h9.44v1.84h-3V98.41h.16l3.72-4.2,8.4-9.16h-3.2V83.21h8.6v1.84h-2.68l-8.64,9.32,9.64,14.92h2.76v1.84H362v-1.84h2.84l-8.08-12.44-4,4.28v8.16h3v1.84h-9.44Z"/><path class="cls-1" d="M374.61,109.29h3V85.05h-3V83.21h20.64v6.72h-2.88V85.17H381.05v10.6H389v-3.2h2.4v8.36H389v-3.2h-7.92v11.44h11.72v-5.12h2.88v7.08h-21Z"/><path class="cls-1" d="M398.69,109.29h2.12l9.08-26.08h3.8l9,26.08h2.12v1.84h-9.44v-1.84H419l-2.48-7.24H405.65l-2.48,7.24h3.6v1.84h-8.08Zm7.52-9.16h9.72l-4.68-14H411Z"/><path class="cls-1" d="M445.93,111.61a9.52,9.52,0,0,1-3.94-.78,8.2,8.2,0,0,1-2.94-2.18,9.66,9.66,0,0,1-1.84-3.4,14.39,14.39,0,0,1-.64-4.44,13,13,0,0,1,.7-4.38A10.93,10.93,0,0,1,439.19,93a8.37,8.37,0,0,1,2.9-2.22,8.64,8.64,0,0,1,3.68-.78,8.79,8.79,0,0,1,3.64.72,7.58,7.58,0,0,1,2.7,2,9.43,9.43,0,0,1,1.7,3.11,12.47,12.47,0,0,1,.6,3.94v.92h-14.2v1a7.86,7.86,0,0,0,1.7,5.33,5.72,5.72,0,0,0,4.54,2,6.84,6.84,0,0,0,3.94-1,7.2,7.2,0,0,0,2.3-2.65l1.32.84a9,9,0,0,1-1.1,2,7.92,7.92,0,0,1-1.7,1.72,8.6,8.6,0,0,1-2.32,1.19A8.88,8.88,0,0,1,445.93,111.61Zm-5.72-12.72H451v-.4a10.72,10.72,0,0,0-.3-2.6,5.92,5.92,0,0,0-.94-2.08,4.7,4.7,0,0,0-1.62-1.38,5.12,5.12,0,0,0-2.34-.5,5.65,5.65,0,0,0-2.4.48,4.84,4.84,0,0,0-1.74,1.36,6.19,6.19,0,0,0-1.06,2.06,8.84,8.84,0,0,0-.36,2.58Z"/><path class="cls-1" d="M458.21,109.29h3V93.09l-3-.52V91.21l6.16-1.2v3.6h.2a9.57,9.57,0,0,1,.7-1.28,5.66,5.66,0,0,1,1-1.16,5.35,5.35,0,0,1,1.44-.84,5.29,5.29,0,0,1,1.9-.32,4.42,4.42,0,0,1,2.82.84,2.93,2.93,0,0,1,1.06,2.44,2.74,2.74,0,0,1-.6,1.88,2,2,0,0,1-1.56.68,2.45,2.45,0,0,1-1.72-.58,1.9,1.9,0,0,1-.64-1.5,2.26,2.26,0,0,1,.34-1.3,1.29,1.29,0,0,1,.78-.58v-.08l-.4-.06-.6,0a3.73,3.73,0,0,0-1.68.42,5.75,5.75,0,0,0-2.58,2.58,3.73,3.73,0,0,0-.42,1.68v12.88h3.76v1.84h-10Z"/><path class="cls-1" d="M475.33,109.29h3V83.81l-3-.52v-1.4l6.24-1.16V93.57h.16a5.56,5.56,0,0,1,.72-1.24,5.65,5.65,0,0,1,1.22-1.16,6.88,6.88,0,0,1,1.72-.84,7.21,7.21,0,0,1,2.22-.32q3.72,0,5.32,1.94t1.6,5.82v11.52h3v1.84h-9.2v-1.84h3V98.05a6.82,6.82,0,0,0-1.16-4.34,4.49,4.49,0,0,0-3.68-1.42,6.41,6.41,0,0,0-1.74.24,4.92,4.92,0,0,0-1.56.76A4,4,0,0,0,482,94.57a3.68,3.68,0,0,0-.42,1.8v12.92h3v1.84h-9.2Z"/><path class="cls-1" d="M500.53,92.33h-2.08V90.49H507v1.84h-2.88l5.56,15.12h.16l5.4-15.12h-2.88V90.49h7.28v1.84h-2.08l-7.24,18.8h-2.52Z"/><path class="cls-1" d="M530.49,111.61a9.52,9.52,0,0,1-3.94-.78,8.2,8.2,0,0,1-2.94-2.18,9.66,9.66,0,0,1-1.84-3.4,14.39,14.39,0,0,1-.64-4.44,13,13,0,0,1,.7-4.38A10.93,10.93,0,0,1,523.75,93a8.37,8.37,0,0,1,2.9-2.22,8.64,8.64,0,0,1,3.68-.78,8.79,8.79,0,0,1,3.64.72,7.58,7.58,0,0,1,2.7,2,9.43,9.43,0,0,1,1.7,3.11,12.47,12.47,0,0,1,.6,3.94v.92h-14.2v1a7.86,7.86,0,0,0,1.7,5.33,5.72,5.72,0,0,0,4.54,2,6.84,6.84,0,0,0,3.94-1,7.2,7.2,0,0,0,2.3-2.65l1.32.84a9,9,0,0,1-1.1,2,7.92,7.92,0,0,1-1.7,1.72,8.6,8.6,0,0,1-2.32,1.19A8.88,8.88,0,0,1,530.49,111.61Zm-5.72-12.72h10.76v-.4a10.72,10.72,0,0,0-.3-2.6,5.92,5.92,0,0,0-.94-2.08,4.7,4.7,0,0,0-1.62-1.38,5.12,5.12,0,0,0-2.34-.5,5.65,5.65,0,0,0-2.4.48,4.84,4.84,0,0,0-1.74,1.36,6.19,6.19,0,0,0-1.06,2.06,8.84,8.84,0,0,0-.36,2.58Z"/><path class="cls-1" d="M542.77,109.29h3V93.09l-3-.52V91.21l6.16-1.2v3.6h.2a9.57,9.57,0,0,1,.7-1.28,5.66,5.66,0,0,1,1-1.16,5.35,5.35,0,0,1,1.44-.84,5.29,5.29,0,0,1,1.9-.32,4.42,4.42,0,0,1,2.82.84,2.93,2.93,0,0,1,1.06,2.44,2.74,2.74,0,0,1-.6,1.88,2,2,0,0,1-1.56.68,2.45,2.45,0,0,1-1.72-.58,1.9,1.9,0,0,1-.64-1.5,2.26,2.26,0,0,1,.34-1.3,1.29,1.29,0,0,1,.78-.58v-.08l-.4-.06-.6,0a3.73,3.73,0,0,0-1.68.42,5.75,5.75,0,0,0-2.58,2.58,3.73,3.73,0,0,0-.42,1.68v12.88h3.76v1.84h-10Z"/><path class="cls-1" d="M568.57,111.61a6.74,6.74,0,0,1-3.28-.77,4.06,4.06,0,0,1-1.84-1.71h-.16v2h-2.4v-6.2h2.4v.85a3.81,3.81,0,0,0,1.08,2.82,4.86,4.86,0,0,0,3.56,1.09,6.44,6.44,0,0,0,3.54-.82,3,3,0,0,0,1.26-2.64c0-1.89-1.13-3.08-3.4-3.59l-2.4-.53a8.68,8.68,0,0,1-4.46-2.15A5.67,5.67,0,0,1,561,95.8a5.19,5.19,0,0,1,1.88-4.25,7.68,7.68,0,0,1,5-1.54,7.27,7.27,0,0,1,3.14.59,3.12,3.12,0,0,1,1.62,1.53h.16V90.49h2.4v6.2h-2.4V95.16q0-3.22-4.48-3.23a5.5,5.5,0,0,0-3.18.79A2.79,2.79,0,0,0,564,95.2a3.27,3.27,0,0,0,.92,2.36,4.9,4.9,0,0,0,2.52,1.31l2.24.48a9.3,9.3,0,0,1,4.62,2.12,5.4,5.4,0,0,1,1.54,4.11,5.74,5.74,0,0,1-.5,2.38,5.45,5.45,0,0,1-1.44,1.91,6.66,6.66,0,0,1-2.28,1.28A9.29,9.29,0,0,1,568.57,111.61Z"/><path class="cls-1" d="M589.13,111.61c-2.48,0-4.26-.64-5.34-1.94s-1.62-3.24-1.62-5.86V93.09l-3-.52V91.21l6.24-1.2v13.52q0,5.81,4.84,5.8a6.41,6.41,0,0,0,1.74-.24,4.72,4.72,0,0,0,1.56-.76,3.94,3.94,0,0,0,1.12-1.28,3.63,3.63,0,0,0,.42-1.8V93.09l-3-.52V91.21l6.24-1.2v18.52l3,.52v1.36l-6.16,1.2V108h-.16a5.13,5.13,0,0,1-.74,1.24,5.74,5.74,0,0,1-1.24,1.16,6.42,6.42,0,0,1-1.74.86A6.72,6.72,0,0,1,589.13,111.61Z"/><path class="cls-1" d="M613.21,111.61a7.54,7.54,0,0,1-6.14-2.78q-2.3-2.77-2.3-8t2.3-8A7.57,7.57,0,0,1,613.21,90a6.73,6.73,0,0,1,3.9,1,6.36,6.36,0,0,1,2.18,2.52h.16V83.81l-3-.52v-1.4l6.28-1.16v27.8l3,.52v1.36l-6.24,1.2V108h-.16a6.37,6.37,0,0,1-2.16,2.54A6.59,6.59,0,0,1,613.21,111.61Zm1-2.28a6.71,6.71,0,0,0,1.92-.28,5.55,5.55,0,0,0,1.7-.8A4.15,4.15,0,0,0,619,107a3.43,3.43,0,0,0,.46-1.74v-8.8a3.43,3.43,0,0,0-.46-1.74,4.26,4.26,0,0,0-1.2-1.3,6.06,6.06,0,0,0-1.7-.8,7.08,7.08,0,0,0-1.92-.28,5.27,5.27,0,0,0-4.3,1.86,7.55,7.55,0,0,0-1.54,5v3.36a7.55,7.55,0,0,0,1.54,5A5.27,5.27,0,0,0,614.17,109.33Z"/><path class="cls-1" d="M637.53,111.61a7.54,7.54,0,0,1-6.14-2.78c-1.54-1.85-2.3-4.52-2.3-8s.76-6.16,2.3-8A7.57,7.57,0,0,1,637.53,90a6.73,6.73,0,0,1,3.9,1,6.36,6.36,0,0,1,2.18,2.52h.16V83.81l-3-.52v-1.4l6.28-1.16v27.8l3,.52v1.36l-6.24,1.2V108h-.16a6.45,6.45,0,0,1-2.16,2.54A6.59,6.59,0,0,1,637.53,111.61Zm1-2.28a6.71,6.71,0,0,0,1.92-.28,5.55,5.55,0,0,0,1.7-.8,4.15,4.15,0,0,0,1.2-1.3,3.43,3.43,0,0,0,.46-1.74v-8.8a3.43,3.43,0,0,0-.46-1.74,4.26,4.26,0,0,0-1.2-1.3,6.06,6.06,0,0,0-1.7-.8,7.08,7.08,0,0,0-1.92-.28,5.27,5.27,0,0,0-4.3,1.86,7.55,7.55,0,0,0-1.54,5v3.36a7.55,7.55,0,0,0,1.54,5A5.27,5.27,0,0,0,638.49,109.33Z"/><path class="cls-1" d="M659.53,111.61a6.37,6.37,0,0,1-4.5-1.5,5.3,5.3,0,0,1-1.62-4.1,6.73,6.73,0,0,1,.48-2.62,4.3,4.3,0,0,1,1.58-1.9,8.32,8.32,0,0,1,2.86-1.16,20,20,0,0,1,4.28-.4h3v-3a5.43,5.43,0,0,0-1.18-3.74,4.58,4.58,0,0,0-3.54-1.3,9.49,9.49,0,0,0-1.92.18,4.92,4.92,0,0,0-1.44.5v.08a3.26,3.26,0,0,1,.86.72,2,2,0,0,1,.42,1.36,2.13,2.13,0,0,1-.6,1.62,2.47,2.47,0,0,1-3.18,0,2.23,2.23,0,0,1-.62-1.74,3.13,3.13,0,0,1,.52-1.7,5,5,0,0,1,1.48-1.46,8.32,8.32,0,0,1,2.38-1A12.59,12.59,0,0,1,662,90,7.19,7.19,0,0,1,667,91.69a6.12,6.12,0,0,1,1.82,4.72v13h3v1.4a4.19,4.19,0,0,1-1.18.56,5.41,5.41,0,0,1-1.66.24,3.15,3.15,0,0,1-2.4-.88,3.26,3.26,0,0,1-.84-2.36v-.28h-.2a6.63,6.63,0,0,1-.74,1.32,4.52,4.52,0,0,1-1.18,1.12,6.35,6.35,0,0,1-1.74.78A8.5,8.5,0,0,1,659.53,111.61Zm1.4-2.2a5.42,5.42,0,0,0,3.28-1,3.48,3.48,0,0,0,1.36-3v-3.88H663a13.62,13.62,0,0,0-2.88.26,5,5,0,0,0-1.84.76,2.86,2.86,0,0,0-1,1.22,4.34,4.34,0,0,0-.3,1.68v.84a2.72,2.72,0,0,0,1,2.32A4.63,4.63,0,0,0,660.93,109.41Z"/><path class="cls-1" d="M675.25,109.29h3V93.09l-3-.52V91.21l6.16-1.2v3.6h.16a5,5,0,0,1,.74-1.24,5.77,5.77,0,0,1,1.24-1.16,7.06,7.06,0,0,1,1.74-.86,7,7,0,0,1,2.2-.34q3.72,0,5.34,1.94t1.62,5.82v11.52h3v1.84h-9.2v-1.84h3V98.05c0-3.84-1.62-5.76-4.84-5.76a6.41,6.41,0,0,0-1.74.24,4.72,4.72,0,0,0-1.56.76,4,4,0,0,0-1.12,1.28,3.68,3.68,0,0,0-.42,1.8v12.92h3v1.84h-9.2Z"/><path class="cls-1" d="M700.81,109.29h3V93.09l-3-.52V91.21L707,90v3.6h.16a5,5,0,0,1,.74-1.24,5.77,5.77,0,0,1,1.24-1.16,7.06,7.06,0,0,1,1.74-.86,7,7,0,0,1,2.2-.34q3.72,0,5.34,1.94T720,97.77v11.52h3v1.84h-9.2v-1.84h3V98.05c0-3.84-1.62-5.76-4.84-5.76a6.41,6.41,0,0,0-1.74.24,4.72,4.72,0,0,0-1.56.76,4,4,0,0,0-1.12,1.28,3.68,3.68,0,0,0-.42,1.8v12.92h3v1.84h-9.2Z"/><path class="cls-1" d="M735.53,111.61a9.52,9.52,0,0,1-3.94-.78,8.2,8.2,0,0,1-2.94-2.18,9.5,9.5,0,0,1-1.84-3.4,14.39,14.39,0,0,1-.64-4.44,13,13,0,0,1,.7-4.38A10.55,10.55,0,0,1,728.79,93a8.37,8.37,0,0,1,2.9-2.22,8.61,8.61,0,0,1,3.68-.78,8.79,8.79,0,0,1,3.64.72,7.76,7.76,0,0,1,2.7,2,9.43,9.43,0,0,1,1.7,3.11,12.47,12.47,0,0,1,.6,3.94v.92h-14.2v1a7.81,7.81,0,0,0,1.7,5.33,5.71,5.71,0,0,0,4.54,2,6.86,6.86,0,0,0,3.94-1,7.2,7.2,0,0,0,2.3-2.65l1.32.84a9.45,9.45,0,0,1-1.1,2,8.15,8.15,0,0,1-1.7,1.72,8.6,8.6,0,0,1-2.32,1.19A8.88,8.88,0,0,1,735.53,111.61Zm-5.72-12.72h10.76v-.4a10.72,10.72,0,0,0-.3-2.6,6.1,6.1,0,0,0-.94-2.08,4.7,4.7,0,0,0-1.62-1.38,5.18,5.18,0,0,0-2.34-.5,5.65,5.65,0,0,0-2.4.48,4.68,4.68,0,0,0-1.74,1.36,6.19,6.19,0,0,0-1.06,2.06,8.84,8.84,0,0,0-.36,2.58Z"/><path class="cls-1" d="M747.21,109.29h3V83.81l-3-.52v-1.4l6.24-1.16v28.56h3v1.84h-9.2Z"/><path class="cls-1" d="M767.89,111.61a6.71,6.71,0,0,1-3.28-.77,4,4,0,0,1-1.84-1.71h-.16v2h-2.4v-6.2h2.4v.85a3.81,3.81,0,0,0,1.08,2.82,4.85,4.85,0,0,0,3.56,1.09,6.44,6.44,0,0,0,3.54-.82,3,3,0,0,0,1.26-2.64c0-1.89-1.14-3.08-3.4-3.59l-2.4-.53a8.64,8.64,0,0,1-4.46-2.15,5.67,5.67,0,0,1-1.5-4.16,5.16,5.16,0,0,1,1.88-4.25,7.68,7.68,0,0,1,5-1.54,7.3,7.3,0,0,1,3.14.59A3.12,3.12,0,0,1,772,92.13h.16V90.49h2.4v6.2h-2.4V95.16c0-2.15-1.5-3.23-4.48-3.23a5.5,5.5,0,0,0-3.18.79,2.79,2.79,0,0,0-1.14,2.48,3.23,3.23,0,0,0,.92,2.36,4.9,4.9,0,0,0,2.52,1.31l2.24.48a9.3,9.3,0,0,1,4.62,2.12,5.44,5.44,0,0,1,1.54,4.11,5.54,5.54,0,0,1-1.94,4.29,6.66,6.66,0,0,1-2.28,1.28A9.37,9.37,0,0,1,767.89,111.61Z"/><path class="cls-1" d="M788.49,111.61a9.52,9.52,0,0,1-3.94-.78,8.2,8.2,0,0,1-2.94-2.18,9.5,9.5,0,0,1-1.84-3.4,14.39,14.39,0,0,1-.64-4.44,13,13,0,0,1,.7-4.38A10.55,10.55,0,0,1,781.75,93a8.37,8.37,0,0,1,2.9-2.22,8.61,8.61,0,0,1,3.68-.78,8.79,8.79,0,0,1,3.64.72,7.76,7.76,0,0,1,2.7,2,9.43,9.43,0,0,1,1.7,3.11,12.47,12.47,0,0,1,.6,3.94v.92h-14.2v1a7.81,7.81,0,0,0,1.7,5.33,5.71,5.71,0,0,0,4.54,2,6.86,6.86,0,0,0,3.94-1,7.2,7.2,0,0,0,2.3-2.65l1.32.84a9.45,9.45,0,0,1-1.1,2,8.15,8.15,0,0,1-1.7,1.72,8.6,8.6,0,0,1-2.32,1.19A8.88,8.88,0,0,1,788.49,111.61Zm-5.72-12.72h10.76v-.4a10.72,10.72,0,0,0-.3-2.6,6.1,6.1,0,0,0-.94-2.08,4.7,4.7,0,0,0-1.62-1.38,5.18,5.18,0,0,0-2.34-.5,5.65,5.65,0,0,0-2.4.48,4.68,4.68,0,0,0-1.74,1.36,6.19,6.19,0,0,0-1.06,2.06,8.84,8.84,0,0,0-.36,2.58Z"/><path class="cls-1" d="M346.33,157.29h3V133.05h-3v-1.84h7l8.16,17.28h.12l8.56-17.28h6.6v1.84h-3v24.24h3v1.84h-9.44v-1.84h3v-22h-.16l-1.76,3.88-7.68,15.32-6.84-14.32-2.24-4.88h-.16v22h3v1.84h-8.2Z"/><path class="cls-1" d="M390.13,159.61c-2.48,0-4.26-.64-5.34-1.94s-1.62-3.24-1.62-5.86V141.09l-3-.52v-1.36l6.24-1.2v13.52q0,5.81,4.84,5.8a6.41,6.41,0,0,0,1.74-.24,4.62,4.62,0,0,0,1.56-.76,3.83,3.83,0,0,0,1.12-1.28,3.63,3.63,0,0,0,.42-1.8V141.09l-3-.52v-1.36l6.24-1.2v18.52l3,.52v1.36l-6.16,1.2V156h-.16a5.13,5.13,0,0,1-.74,1.24,5.52,5.52,0,0,1-1.24,1.16,6.42,6.42,0,0,1-1.74.86A6.68,6.68,0,0,1,390.13,159.61Z"/><path class="cls-1" d="M405.17,157.29h3V131.81l-3-.52v-1.4l6.24-1.16v28.56h3v1.84h-9.2Z"/><path class="cls-1" d="M423.85,159.37a3.93,3.93,0,0,1-2.92-.86,4.32,4.32,0,0,1-.8-2.95V140.41h-2.64v-1.92h.36a6,6,0,0,0,1.34-.12,2.19,2.19,0,0,0,.8-.34,1.22,1.22,0,0,0,.44-.56,6.46,6.46,0,0,0,.26-.78l.92-3.56h1.8v5.36h5.32v1.92h-5.32v16.76h5.32v1.32a3.83,3.83,0,0,1-.9.36,10.67,10.67,0,0,1-1.2.28q-.66.12-1.38.18C424.77,159.35,424.3,159.37,423.85,159.37Z"/><path class="cls-1" d="M431.89,157.29h3v-16.2l-3-.52v-1.36l6.24-1.2v19.28h3v1.84h-9.2Zm4.6-23.56a2,2,0,0,1-1.58-.62,2.19,2.19,0,0,1-.54-1.5v-.2a2.23,2.23,0,0,1,.54-1.5,2,2,0,0,1,1.58-.62,2.06,2.06,0,0,1,1.6.62,2.2,2.2,0,0,1,.56,1.5v.2a2.16,2.16,0,0,1-.56,1.5A2,2,0,0,1,436.49,133.73Z"/><path class="cls-1" d="M444.49,157.29h3v-16.2l-3-.52v-1.36l6.16-1.2v3.6h.16a5.36,5.36,0,0,1,.72-1.28,5.65,5.65,0,0,1,1.22-1.16,6.57,6.57,0,0,1,3.86-1.16,7.77,7.77,0,0,1,4.2,1,5.23,5.23,0,0,1,2.16,3.08h.12a7.68,7.68,0,0,1,.84-1.44,6.64,6.64,0,0,1,1.28-1.32,6.19,6.19,0,0,1,1.78-1,7.13,7.13,0,0,1,2.38-.36c2.48,0,4.25.66,5.3,2a9.2,9.2,0,0,1,1.58,5.84v11.48h3v1.84H470v-1.84h3V146.05q0-5.76-4.76-5.76a6.06,6.06,0,0,0-1.74.26,5,5,0,0,0-1.52.76,3.79,3.79,0,0,0-1.06,1.28,3.9,3.9,0,0,0-.4,1.82v12.88h3v1.84h-9.2v-1.84h3V146.05q0-5.76-4.72-5.76a6,6,0,0,0-1.76.26,5.28,5.28,0,0,0-1.52.76,3.73,3.73,0,0,0-1.08,1.28,3.9,3.9,0,0,0-.4,1.82v12.88h3v1.84h-9.2Z"/><path class="cls-1" d="M491.77,159.61a9.52,9.52,0,0,1-3.94-.78,8.2,8.2,0,0,1-2.94-2.18,9.66,9.66,0,0,1-1.84-3.4,14.39,14.39,0,0,1-.64-4.44,13,13,0,0,1,.7-4.38A10.93,10.93,0,0,1,485,141a8.37,8.37,0,0,1,2.9-2.22,8.64,8.64,0,0,1,3.68-.78,8.79,8.79,0,0,1,3.64.72,7.58,7.58,0,0,1,2.7,2,9.43,9.43,0,0,1,1.7,3.11,12.47,12.47,0,0,1,.6,3.94v.92h-14.2v1a7.86,7.86,0,0,0,1.7,5.33,5.72,5.72,0,0,0,4.54,2,6.84,6.84,0,0,0,3.94-1,7.2,7.2,0,0,0,2.3-2.65l1.32.84a9,9,0,0,1-1.1,2,7.92,7.92,0,0,1-1.7,1.72,8.6,8.6,0,0,1-2.32,1.19A8.88,8.88,0,0,1,491.77,159.61Zm-5.72-12.72h10.76v-.4a10.72,10.72,0,0,0-.3-2.6,5.92,5.92,0,0,0-.94-2.08,4.7,4.7,0,0,0-1.62-1.38,5.15,5.15,0,0,0-2.34-.5,5.65,5.65,0,0,0-2.4.48,4.84,4.84,0,0,0-1.74,1.36,6.19,6.19,0,0,0-1.06,2.06,8.84,8.84,0,0,0-.36,2.58Z"/><path class="cls-1" d="M512.89,159.61a7.54,7.54,0,0,1-6.14-2.78c-1.54-1.85-2.3-4.52-2.3-8s.76-6.16,2.3-8a7.57,7.57,0,0,1,6.14-2.78,6.73,6.73,0,0,1,3.9,1,6.28,6.28,0,0,1,2.18,2.52h.16v-9.76l-3-.52v-1.4l6.28-1.16v27.8l3,.52v1.36l-6.24,1.2V156H519a6.37,6.37,0,0,1-2.16,2.54A6.57,6.57,0,0,1,512.89,159.61Zm1-2.28a6.71,6.71,0,0,0,1.92-.28,5.44,5.44,0,0,0,1.7-.8,4.15,4.15,0,0,0,1.2-1.3,3.33,3.33,0,0,0,.46-1.74v-8.8a3.33,3.33,0,0,0-.46-1.74,4.26,4.26,0,0,0-1.2-1.3,5.93,5.93,0,0,0-1.7-.8,7.08,7.08,0,0,0-1.92-.28,5.28,5.28,0,0,0-4.3,1.86,7.55,7.55,0,0,0-1.54,5v3.36a7.55,7.55,0,0,0,1.54,5A5.28,5.28,0,0,0,513.85,157.33Z"/><path class="cls-1" d="M528.77,157.29h3v-16.2l-3-.52v-1.36L535,138v19.28h3v1.84h-9.2Zm4.6-23.56a2,2,0,0,1-1.58-.62,2.19,2.19,0,0,1-.54-1.5v-.2a2.23,2.23,0,0,1,.54-1.5,2,2,0,0,1,1.58-.62,2.07,2.07,0,0,1,1.6.62,2.2,2.2,0,0,1,.56,1.5v.2a2.16,2.16,0,0,1-.56,1.5A2,2,0,0,1,533.37,133.73Z"/><path class="cls-1" d="M550.53,159.61a9.52,9.52,0,0,1-3.94-.78,8.2,8.2,0,0,1-2.94-2.18,9.5,9.5,0,0,1-1.84-3.4,14.39,14.39,0,0,1-.64-4.44,13,13,0,0,1,.7-4.38,10.55,10.55,0,0,1,1.92-3.42,8.37,8.37,0,0,1,2.9-2.22,8.61,8.61,0,0,1,3.68-.78,8.79,8.79,0,0,1,3.64.72,7.76,7.76,0,0,1,2.7,2,9.43,9.43,0,0,1,1.7,3.11,12.47,12.47,0,0,1,.6,3.94v.92h-14.2v1a7.86,7.86,0,0,0,1.7,5.33,5.71,5.71,0,0,0,4.54,2,6.86,6.86,0,0,0,3.94-1,7.2,7.2,0,0,0,2.3-2.65l1.32.84a9.45,9.45,0,0,1-1.1,2,8.15,8.15,0,0,1-1.7,1.72,8.6,8.6,0,0,1-2.32,1.19A8.88,8.88,0,0,1,550.53,159.61Zm-5.72-12.72h10.76v-.4a10.72,10.72,0,0,0-.3-2.6,6.1,6.1,0,0,0-.94-2.08,4.7,4.7,0,0,0-1.62-1.38,5.18,5.18,0,0,0-2.34-.5,5.65,5.65,0,0,0-2.4.48,4.68,4.68,0,0,0-1.74,1.36,6.19,6.19,0,0,0-1.06,2.06,8.84,8.84,0,0,0-.36,2.58Z"/><path class="cls-1" d="M571.65,159.61a7.54,7.54,0,0,1-6.14-2.78c-1.54-1.85-2.3-4.52-2.3-8s.76-6.16,2.3-8a7.57,7.57,0,0,1,6.14-2.78,6.73,6.73,0,0,1,3.9,1,6.36,6.36,0,0,1,2.18,2.52h.16v-9.76l-3-.52v-1.4l6.28-1.16v27.8l3,.52v1.36l-6.24,1.2V156h-.16a6.45,6.45,0,0,1-2.16,2.54A6.59,6.59,0,0,1,571.65,159.61Zm1-2.28a6.71,6.71,0,0,0,1.92-.28,5.55,5.55,0,0,0,1.7-.8,4.15,4.15,0,0,0,1.2-1.3,3.43,3.43,0,0,0,.46-1.74v-8.8a3.43,3.43,0,0,0-.46-1.74,4.26,4.26,0,0,0-1.2-1.3,6.06,6.06,0,0,0-1.7-.8,7.08,7.08,0,0,0-1.92-.28,5.27,5.27,0,0,0-4.3,1.86,7.55,7.55,0,0,0-1.54,5v3.36a7.55,7.55,0,0,0,1.54,5A5.27,5.27,0,0,0,572.61,157.33Z"/><path class="cls-1" d="M596.69,159.61a9.52,9.52,0,0,1-3.94-.78,8.2,8.2,0,0,1-2.94-2.18,9.5,9.5,0,0,1-1.84-3.4,14.39,14.39,0,0,1-.64-4.44,13,13,0,0,1,.7-4.38A10.55,10.55,0,0,1,590,141a8.37,8.37,0,0,1,2.9-2.22,8.61,8.61,0,0,1,3.68-.78,8.79,8.79,0,0,1,3.64.72,7.76,7.76,0,0,1,2.7,2,9.43,9.43,0,0,1,1.7,3.11,12.47,12.47,0,0,1,.6,3.94v.92H591v1a7.81,7.81,0,0,0,1.7,5.33,5.71,5.71,0,0,0,4.54,2,6.86,6.86,0,0,0,3.94-1,7.2,7.2,0,0,0,2.3-2.65l1.32.84a9.45,9.45,0,0,1-1.1,2A8.15,8.15,0,0,1,602,158a8.6,8.6,0,0,1-2.32,1.19A8.88,8.88,0,0,1,596.69,159.61ZM591,146.89h10.76v-.4a10.72,10.72,0,0,0-.3-2.6,6.1,6.1,0,0,0-.94-2.08,4.7,4.7,0,0,0-1.62-1.38,5.18,5.18,0,0,0-2.34-.5,5.65,5.65,0,0,0-2.4.48,4.68,4.68,0,0,0-1.74,1.36,6.19,6.19,0,0,0-1.06,2.06,8.84,8.84,0,0,0-.36,2.58Z"/><path class="cls-1" d="M617.05,159.61a6.71,6.71,0,0,1-3.28-.77,4,4,0,0,1-1.84-1.71h-.16v2h-2.4v-6.2h2.4v.85a3.81,3.81,0,0,0,1.08,2.82,4.85,4.85,0,0,0,3.56,1.09,6.44,6.44,0,0,0,3.54-.82,3,3,0,0,0,1.26-2.64c0-1.89-1.14-3.08-3.4-3.59l-2.4-.53A8.64,8.64,0,0,1,611,148a5.67,5.67,0,0,1-1.5-4.16,5.16,5.16,0,0,1,1.88-4.25,7.68,7.68,0,0,1,5-1.54,7.3,7.3,0,0,1,3.14.59,3.12,3.12,0,0,1,1.62,1.53h.16v-1.64h2.4v6.2h-2.4v-1.53c0-2.15-1.5-3.23-4.48-3.23a5.5,5.5,0,0,0-3.18.79,2.79,2.79,0,0,0-1.14,2.48,3.23,3.23,0,0,0,.92,2.36,4.9,4.9,0,0,0,2.52,1.31l2.24.48a9.3,9.3,0,0,1,4.62,2.12,5.44,5.44,0,0,1,1.54,4.11,5.54,5.54,0,0,1-1.94,4.29,6.66,6.66,0,0,1-2.28,1.28A9.37,9.37,0,0,1,617.05,159.61Z"/><path class="cls-1" d="M628.49,157.29h3v-16.2l-3-.52v-1.36l6.24-1.2v19.28h3v1.84h-9.2Zm4.6-23.56a2,2,0,0,1-1.58-.62,2.19,2.19,0,0,1-.54-1.5v-.2a2.23,2.23,0,0,1,.54-1.5,2,2,0,0,1,1.58-.62,2.07,2.07,0,0,1,1.6.62,2.2,2.2,0,0,1,.56,1.5v.2a2.16,2.16,0,0,1-.56,1.5A2,2,0,0,1,633.09,133.73Z"/><path class="cls-1" d="M649.57,167.61a19.8,19.8,0,0,1-4.08-.36,8.82,8.82,0,0,1-2.72-1,3.85,3.85,0,0,1-1.5-1.56,4.39,4.39,0,0,1-.46-2,3.08,3.08,0,0,1,.36-1.47,4.24,4.24,0,0,1,1-1.2,6.52,6.52,0,0,1,1.36-.89,7.33,7.33,0,0,1,1.56-.58v-.16a3.38,3.38,0,0,1-2.52-3.42,3.25,3.25,0,0,1,1-2.53,5.59,5.59,0,0,1,2.38-1.29v-.2a6.74,6.74,0,0,1-3-2.36,6.3,6.3,0,0,1-1.1-3.76,6.62,6.62,0,0,1,.58-2.82,5.93,5.93,0,0,1,1.64-2.14,7.72,7.72,0,0,1,2.5-1.36,9.93,9.93,0,0,1,3.16-.48,9.35,9.35,0,0,1,3.22.5,8.77,8.77,0,0,1,2.26,1.22,4.48,4.48,0,0,1,.9-3.16,2.78,2.78,0,0,1,2-.84,2.15,2.15,0,0,1,1.46.52,1.82,1.82,0,0,1,.58,1.4,1.87,1.87,0,0,1-.54,1.38,2,2,0,0,1-1.5.54,2,2,0,0,1-1.72-.8h-.12v2a11.3,11.3,0,0,1,.92,1.56,5.56,5.56,0,0,1,.48,2.48,6.6,6.6,0,0,1-.6,2.84,6.13,6.13,0,0,1-1.66,2.16,7.63,7.63,0,0,1-2.52,1.36,10.19,10.19,0,0,1-3.18.48,9,9,0,0,1-2.12-.24,4.27,4.27,0,0,0-1.88.87,2,2,0,0,0-.84,1.59,1.46,1.46,0,0,0,.76,1.42,5.83,5.83,0,0,0,2.56.4h4.72a8,8,0,0,1,5.22,1.42,5,5,0,0,1,1.7,4,5.43,5.43,0,0,1-2.6,4.71Q654.64,167.62,649.57,167.61Zm-5.84-5.12a2.59,2.59,0,0,0,1.38,2.4,7.39,7.39,0,0,0,3.7.8h1.88a9.27,9.27,0,0,0,4.7-1,3,3,0,0,0,1.7-2.68,2.71,2.71,0,0,0-1-2.3,6.31,6.31,0,0,0-3.64-.78h-6.24a4,4,0,0,0-1.86,1.48A3.79,3.79,0,0,0,643.73,162.49Zm6-12.56a4.34,4.34,0,0,0,3.3-1.16,4.4,4.4,0,0,0,1.1-3.16v-1.56a4.44,4.44,0,0,0-1.1-3.16,4.41,4.41,0,0,0-7.7,3.16v1.56a4.36,4.36,0,0,0,1.1,3.16A4.31,4.31,0,0,0,649.77,149.93Z"/><path class="cls-1" d="M662.85,157.29h3v-16.2l-3-.52v-1.36L669,138v3.6h.16a5,5,0,0,1,.74-1.24,5.77,5.77,0,0,1,1.24-1.16,7.06,7.06,0,0,1,1.74-.86,7,7,0,0,1,2.2-.34q3.72,0,5.34,1.94t1.62,5.82v11.52h3v1.84h-9.2v-1.84h3V146.05c0-3.84-1.62-5.76-4.84-5.76a6.41,6.41,0,0,0-1.74.24,4.72,4.72,0,0,0-1.56.76,4,4,0,0,0-1.12,1.28,3.68,3.68,0,0,0-.42,1.8v12.92h3v1.84h-9.2Z"/><path class="cls-1" d="M697.57,159.61a9.6,9.6,0,0,1-4-.78,8.16,8.16,0,0,1-2.93-2.18,9.5,9.5,0,0,1-1.84-3.4,14.39,14.39,0,0,1-.64-4.44,13,13,0,0,1,.7-4.38,10.55,10.55,0,0,1,1.92-3.42,8.37,8.37,0,0,1,2.9-2.22,8.61,8.61,0,0,1,3.68-.78,8.71,8.71,0,0,1,3.63.72,7.71,7.71,0,0,1,2.71,2,9.61,9.61,0,0,1,1.7,3.11,12.47,12.47,0,0,1,.59,3.94v.92H691.85v1a7.85,7.85,0,0,0,1.69,5.33,5.74,5.74,0,0,0,4.54,2,6.88,6.88,0,0,0,3.95-1,7.2,7.2,0,0,0,2.3-2.65l1.32.84a9.07,9.07,0,0,1-1.11,2,7.87,7.87,0,0,1-1.69,1.72,8.6,8.6,0,0,1-2.32,1.19A8.88,8.88,0,0,1,697.57,159.61Zm-5.72-12.72h10.76v-.4a11.24,11.24,0,0,0-.3-2.6,6.1,6.1,0,0,0-.94-2.08,4.7,4.7,0,0,0-1.62-1.38,5.18,5.18,0,0,0-2.34-.5,5.73,5.73,0,0,0-2.41.48,4.72,4.72,0,0,0-1.73,1.36,6.19,6.19,0,0,0-1.06,2.06,8.52,8.52,0,0,0-.36,2.58Z"/><path class="cls-1" d="M709.85,157.29h3v-16.2l-3-.52v-1.36L716,138v3.6h.2a8.56,8.56,0,0,1,.7-1.28,5.19,5.19,0,0,1,2.48-2,5.25,5.25,0,0,1,1.9-.32,4.42,4.42,0,0,1,2.82.84,3,3,0,0,1,1.06,2.44,2.74,2.74,0,0,1-.6,1.88,2,2,0,0,1-1.56.68,2.44,2.44,0,0,1-1.72-.58,1.9,1.9,0,0,1-.64-1.5,2.26,2.26,0,0,1,.34-1.3,1.23,1.23,0,0,1,.78-.58v-.08l-.4-.06-.6,0a3.73,3.73,0,0,0-1.68.42,5.75,5.75,0,0,0-2.58,2.58,3.73,3.73,0,0,0-.42,1.68v12.88h3.76v1.84h-10Z"/><path class="cls-1" d="M356.77,453.61a11.12,11.12,0,0,1-4.78-1,10.18,10.18,0,0,1-3.66-2.86,13.47,13.47,0,0,1-2.36-4.54,20.13,20.13,0,0,1-.84-6A20.81,20.81,0,0,1,346,433a12.83,12.83,0,0,1,2.4-4.54,10.11,10.11,0,0,1,3.78-2.78,12.6,12.6,0,0,1,5-.94,11.2,11.2,0,0,1,5,.9,4.38,4.38,0,0,1,2.24,2.14h.2v-2.56h2.88v8.16h-2.88v-2a3.75,3.75,0,0,0-1.88-3.4,11.39,11.39,0,0,0-8.94-.46,7.14,7.14,0,0,0-2.68,2,8.72,8.72,0,0,0-1.58,3.06,14.1,14.1,0,0,0-.52,4v5.12a12.83,12.83,0,0,0,.58,3.94,8.55,8.55,0,0,0,1.66,3,7.38,7.38,0,0,0,2.6,1.92,8.07,8.07,0,0,0,3.36.68,9.6,9.6,0,0,0,2.84-.4,6.63,6.63,0,0,0,2.28-1.16,5.21,5.21,0,0,0,1.5-1.88,5.89,5.89,0,0,0,.54-2.6v-3.72h-5v-1.84h11v1.84h-2.56v11.64h-1.32l-1.92-3.88h-.16a5.77,5.77,0,0,1-1,1.58,6.74,6.74,0,0,1-1.58,1.4,8,8,0,0,1-2.22,1A10.2,10.2,0,0,1,356.77,453.61Z"/><path class="cls-1" d="M383.09,453.61c-2.48,0-4.26-.64-5.34-1.94s-1.62-3.24-1.62-5.86V435.09l-3-.52v-1.36l6.24-1.2v13.52c0,3.87,1.62,5.8,4.84,5.8a6.41,6.41,0,0,0,1.74-.24,4.72,4.72,0,0,0,1.56-.76,3.83,3.83,0,0,0,1.12-1.28,3.66,3.66,0,0,0,.42-1.8V435.09l-3-.52v-1.36l6.24-1.2v18.52l3,.52v1.36l-6.16,1.2V450H389a4.83,4.83,0,0,1-.74,1.24,5.31,5.31,0,0,1-1.24,1.16,6.84,6.84,0,0,1-3.94,1.2Z"/><path class="cls-1" d="M398.73,451.29h3v-16.2l-3-.52v-1.36l6.16-1.2v3.6h.16a5.33,5.33,0,0,1,.74-1.24,6,6,0,0,1,1.24-1.16,7.06,7.06,0,0,1,1.74-.86A6.72,6.72,0,0,1,411,432q3.72,0,5.34,1.94t1.62,5.82v11.52h3v1.84h-9.2v-1.84h3V440.05q0-5.76-4.84-5.76a6.41,6.41,0,0,0-1.74.24,4.92,4.92,0,0,0-1.56.76,4,4,0,0,0-1.12,1.28,3.68,3.68,0,0,0-.42,1.8v12.92h3v1.84h-9.2Z"/><path class="cls-1" d="M432.37,453.61a6.63,6.63,0,0,1-3.28-.77,4.06,4.06,0,0,1-1.84-1.71h-.16v2h-2.4v-6.2h2.4v.85a3.81,3.81,0,0,0,1.08,2.82,4.86,4.86,0,0,0,3.56,1.09,6.44,6.44,0,0,0,3.54-.82,3,3,0,0,0,1.26-2.65q0-2.82-3.4-3.58l-2.4-.53a8.68,8.68,0,0,1-4.46-2.15,5.67,5.67,0,0,1-1.5-4.16,5.19,5.19,0,0,1,1.88-4.25,7.68,7.68,0,0,1,5-1.54,7.27,7.27,0,0,1,3.14.59,3.12,3.12,0,0,1,1.62,1.53h.16v-1.64H439v6.2h-2.4v-1.53q0-3.23-4.48-3.23a5.5,5.5,0,0,0-3.18.79,2.79,2.79,0,0,0-1.14,2.48,3.27,3.27,0,0,0,.92,2.36,4.9,4.9,0,0,0,2.52,1.31l2.24.48a9.3,9.3,0,0,1,4.62,2.12,5.4,5.4,0,0,1,1.54,4.11,5.77,5.77,0,0,1-.5,2.38,5.58,5.58,0,0,1-1.44,1.92,6.81,6.81,0,0,1-2.28,1.27A9.29,9.29,0,0,1,432.37,453.61Z"/><path class="cls-1" d="M443.21,451.29h3V425.81l-3-.52v-1.4l6.24-1.16v28.56h3v1.84h-9.2Z"/><path class="cls-1" d="M465,453.61a9.52,9.52,0,0,1-3.94-.78,8.2,8.2,0,0,1-2.94-2.18,9.66,9.66,0,0,1-1.84-3.4,14.39,14.39,0,0,1-.64-4.44,13,13,0,0,1,.7-4.38,10.93,10.93,0,0,1,1.92-3.42,8.37,8.37,0,0,1,2.9-2.22,8.64,8.64,0,0,1,3.68-.78,8.79,8.79,0,0,1,3.64.72,7.58,7.58,0,0,1,2.7,2,9.43,9.43,0,0,1,1.7,3.11,12.47,12.47,0,0,1,.6,3.94v.92h-14.2v1a7.86,7.86,0,0,0,1.7,5.33,5.72,5.72,0,0,0,4.54,1.95,6.84,6.84,0,0,0,3.94-1,7.2,7.2,0,0,0,2.3-2.65l1.32.84a9,9,0,0,1-1.1,2,7.92,7.92,0,0,1-1.7,1.72,8.6,8.6,0,0,1-2.32,1.19A8.88,8.88,0,0,1,465,453.61Zm-5.72-12.72H470v-.4a10.72,10.72,0,0,0-.3-2.6,5.92,5.92,0,0,0-.94-2.08,4.7,4.7,0,0,0-1.62-1.38,5.12,5.12,0,0,0-2.34-.5,5.65,5.65,0,0,0-2.4.48,4.84,4.84,0,0,0-1.74,1.36,6.1,6.1,0,0,0-1.06,2.06,8.84,8.84,0,0,0-.36,2.58Z"/><path class="cls-1" d="M477.41,434.33h-2.08v-1.84h8.56v1.84H481l5.56,15.12h.16l5.4-15.12h-2.88v-1.84h7.28v1.84h-2.08l-7.24,18.8h-2.52Z"/><path class="cls-1" d="M498,451.29h3V425.81l-3-.52v-1.4l6.24-1.16v12.84h.16a5.56,5.56,0,0,1,.72-1.24,5.65,5.65,0,0,1,1.22-1.16,6.56,6.56,0,0,1,1.72-.84,7.21,7.21,0,0,1,2.22-.32q3.72,0,5.32,1.94t1.6,5.82v11.52h3v1.84H511v-1.84h3V440.05a6.82,6.82,0,0,0-1.16-4.34,4.49,4.49,0,0,0-3.68-1.42,6.41,6.41,0,0,0-1.74.24,4.92,4.92,0,0,0-1.56.76,4,4,0,0,0-1.12,1.28,3.68,3.68,0,0,0-.42,1.8v12.92h3v1.84H498Z"/><path class="cls-1" d="M532.85,453.61a9.63,9.63,0,0,1-3.88-.76,8.07,8.07,0,0,1-3-2.18,9.91,9.91,0,0,1-1.92-3.4,14.9,14.9,0,0,1,0-8.9A10,10,0,0,1,526,435a8.3,8.3,0,0,1,3-2.18,10.28,10.28,0,0,1,7.76,0,8.47,8.47,0,0,1,3,2.18,10,10,0,0,1,1.92,3.42,14.9,14.9,0,0,1,0,8.9,9.91,9.91,0,0,1-1.92,3.4,8.23,8.23,0,0,1-3,2.18A9.63,9.63,0,0,1,532.85,453.61Zm0-1.92a6.06,6.06,0,0,0,2.58-.5,4.65,4.65,0,0,0,1.8-1.41,6.05,6.05,0,0,0,1-2.13,9.76,9.76,0,0,0,.34-2.67v-4.34a9.86,9.86,0,0,0-.34-2.67,6.05,6.05,0,0,0-1-2.13,4.84,4.84,0,0,0-1.8-1.41,7,7,0,0,0-5.18,0,4.85,4.85,0,0,0-1.78,1.41,6.05,6.05,0,0,0-1,2.13,9.86,9.86,0,0,0-.34,2.67V445a9.76,9.76,0,0,0,.34,2.67,6.05,6.05,0,0,0,1,2.13,4.66,4.66,0,0,0,1.78,1.41A6.06,6.06,0,0,0,532.85,451.69Z"/><path class="cls-1" d="M545.53,451.29h3V425.81l-3-.52v-1.4l6.24-1.16v28.56h3v1.84h-9.2Z"/><path class="cls-1" d="M558.13,451.29h3v-16.2l-3-.52v-1.36l6.16-1.2v3.6h.16a5.36,5.36,0,0,1,.72-1.28,5.43,5.43,0,0,1,1.22-1.16,6.58,6.58,0,0,1,1.7-.84,6.91,6.91,0,0,1,2.16-.32,7.77,7.77,0,0,1,4.2,1,5.23,5.23,0,0,1,2.16,3.08h.12a7.68,7.68,0,0,1,.84-1.44,6.64,6.64,0,0,1,1.28-1.32,6.19,6.19,0,0,1,1.78-1A7.13,7.13,0,0,1,583,432c2.48,0,4.25.66,5.3,2a9.2,9.2,0,0,1,1.58,5.84v11.48h3v1.84h-9.2v-1.84h3V440.05q0-5.76-4.76-5.76a6.06,6.06,0,0,0-1.74.26,5,5,0,0,0-1.52.76,3.68,3.68,0,0,0-1.06,1.28,3.9,3.9,0,0,0-.4,1.82v12.88h3v1.84h-9.2v-1.84h3V440.05q0-5.76-4.72-5.76a6,6,0,0,0-1.76.26,5.28,5.28,0,0,0-1.52.76,3.63,3.63,0,0,0-1.08,1.28,3.9,3.9,0,0,0-.4,1.82v12.88h3v1.84h-9.2Z"/><path class="cls-1" d="M605.53,451.29h3v-16.2l-3-.52v-1.36l6.24-1.2v19.28h3v1.84h-9.2Zm4.6-23.56a2,2,0,0,1-1.58-.62,2.19,2.19,0,0,1-.54-1.5v-.2a2.23,2.23,0,0,1,.54-1.5,2,2,0,0,1,1.58-.62,2.07,2.07,0,0,1,1.6.62,2.2,2.2,0,0,1,.56,1.5v.2a2.16,2.16,0,0,1-.56,1.5A2,2,0,0,1,610.13,427.73Z"/><path class="cls-1" d="M626.57,453.61a7.54,7.54,0,0,1-6.14-2.78c-1.54-1.85-2.3-4.52-2.3-8s.76-6.16,2.3-8a7.57,7.57,0,0,1,6.14-2.78,6.73,6.73,0,0,1,3.9,1,6.36,6.36,0,0,1,2.18,2.52h.16v-9.76l-3-.52v-1.4l6.28-1.16v27.8l3,.52v1.36l-6.24,1.2V450h-.16a6.45,6.45,0,0,1-2.16,2.54A6.59,6.59,0,0,1,626.57,453.61Zm1-2.28a6.71,6.71,0,0,0,1.92-.28,5.55,5.55,0,0,0,1.7-.8,4.15,4.15,0,0,0,1.2-1.3,3.43,3.43,0,0,0,.46-1.74v-8.8a3.43,3.43,0,0,0-.46-1.74,4.26,4.26,0,0,0-1.2-1.3,6.06,6.06,0,0,0-1.7-.8,7.08,7.08,0,0,0-1.92-.28,5.27,5.27,0,0,0-4.3,1.86,7.55,7.55,0,0,0-1.54,5v3.36a7.55,7.55,0,0,0,1.54,5A5.27,5.27,0,0,0,627.53,451.33Z"/><path class="cls-1" d="M642.45,451.29h3v-16.2l-3-.52v-1.36l6.16-1.2v3.6h.2a8.56,8.56,0,0,1,.7-1.28,5.39,5.39,0,0,1,1-1.16,5.1,5.1,0,0,1,1.44-.84,5.25,5.25,0,0,1,1.9-.32,4.42,4.42,0,0,1,2.82.84,3,3,0,0,1,1.06,2.44,2.74,2.74,0,0,1-.6,1.88,2,2,0,0,1-1.56.68,2.44,2.44,0,0,1-1.72-.58,1.9,1.9,0,0,1-.64-1.5,2.26,2.26,0,0,1,.34-1.3,1.23,1.23,0,0,1,.78-.58v-.08l-.4-.06-.6,0a3.73,3.73,0,0,0-1.68.42,5.75,5.75,0,0,0-2.58,2.58,3.73,3.73,0,0,0-.42,1.68v12.88h3.76v1.84h-10Z"/><path class="cls-1" d="M666.29,453.61a6.11,6.11,0,0,1-4.5-1.6,5.64,5.64,0,0,1-1.62-4.2,7.53,7.53,0,0,1,.48-2.8,4.35,4.35,0,0,1,1.58-2,7.61,7.61,0,0,1,2.86-1.16,20.83,20.83,0,0,1,4.28-.38h3v-2.6a5.43,5.43,0,0,0-1.18-3.74,4.58,4.58,0,0,0-3.54-1.3,9.49,9.49,0,0,0-1.92.18,4.92,4.92,0,0,0-1.44.5v.08a3.26,3.26,0,0,1,.86.72,2,2,0,0,1,.42,1.36,2.13,2.13,0,0,1-.6,1.62,2.47,2.47,0,0,1-3.18,0,2.23,2.23,0,0,1-.62-1.74,3.13,3.13,0,0,1,.52-1.7,5,5,0,0,1,1.48-1.46,8.32,8.32,0,0,1,2.38-1,12.59,12.59,0,0,1,3.22-.38,6.73,6.73,0,0,1,2.28.36,5.72,5.72,0,0,1,1.72,1,4.63,4.63,0,0,1,1.14,1.4,5.16,5.16,0,0,1,.54,1.68h.24a5.83,5.83,0,0,1,2.26-3.16,6.86,6.86,0,0,1,4.14-1.24,7.83,7.83,0,0,1,3.58.78,7.69,7.69,0,0,1,2.58,2.12,9.45,9.45,0,0,1,1.56,3.18,14.81,14.81,0,0,1,.52,4v1.12H675.65v.56a7.85,7.85,0,0,0,1.7,5.36,5.68,5.68,0,0,0,4.54,2,8.74,8.74,0,0,0,2.12-.22,4.87,4.87,0,0,0,1.52-.64,4.34,4.34,0,0,0,1.1-1,13.52,13.52,0,0,0,.9-1.42l1.32.84a10.33,10.33,0,0,1-1,2,6.16,6.16,0,0,1-1.5,1.6,6.94,6.94,0,0,1-2.12,1.08,9.15,9.15,0,0,1-2.86.4,8.51,8.51,0,0,1-2.7-.4,7.51,7.51,0,0,1-2.14-1.06,6.64,6.64,0,0,1-1.56-1.52,5.5,5.5,0,0,1-.92-1.78h-.24a6,6,0,0,1-2.7,3.64A9.5,9.5,0,0,1,666.29,453.61Zm1.4-2.2a5.42,5.42,0,0,0,3.28-1,3.48,3.48,0,0,0,1.36-3v-4.32h-2.6a13.62,13.62,0,0,0-2.88.26,4.83,4.83,0,0,0-1.84.78,3,3,0,0,0-1,1.24,4.34,4.34,0,0,0-.3,1.68v1.24a2.72,2.72,0,0,0,1,2.32A4.63,4.63,0,0,0,667.69,451.41Zm8-10h10.24v-.68a13.13,13.13,0,0,0-.26-2.64,7.43,7.43,0,0,0-.82-2.18,4.25,4.25,0,0,0-1.5-1.48,4.47,4.47,0,0,0-2.26-.54,5.23,5.23,0,0,0-2.36.5,4.91,4.91,0,0,0-1.68,1.38,5.86,5.86,0,0,0-1,2.08,9.4,9.4,0,0,0-.34,2.6Z"/><path class="cls-1" d="M699.17,453.37a3.92,3.92,0,0,1-2.92-.86,4.27,4.27,0,0,1-.8-2.95V434.41h-2.64v-1.92h.36a6,6,0,0,0,1.34-.12,2.19,2.19,0,0,0,.8-.34,1.28,1.28,0,0,0,.44-.56,6.46,6.46,0,0,0,.26-.78l.92-3.56h1.8v5.36h5.32v1.92h-5.32v16.76h5.32v1.32a4.31,4.31,0,0,1-.9.36,10.67,10.67,0,0,1-1.2.28q-.66.12-1.38.18C700.09,453.35,699.62,453.37,699.17,453.37Z"/><path class="cls-1" d="M715.29,453.61a6.6,6.6,0,0,1-3.28-.77,4,4,0,0,1-1.84-1.71H710v2h-2.4v-6.2H710v.85a3.81,3.81,0,0,0,1.08,2.82,4.85,4.85,0,0,0,3.56,1.09,6.44,6.44,0,0,0,3.54-.82,3,3,0,0,0,1.26-2.65c0-1.88-1.14-3.07-3.4-3.58l-2.4-.53a8.64,8.64,0,0,1-4.46-2.15,5.67,5.67,0,0,1-1.5-4.16,5.16,5.16,0,0,1,1.88-4.25,7.68,7.68,0,0,1,5-1.54,7.3,7.3,0,0,1,3.14.59,3.12,3.12,0,0,1,1.62,1.53h.16v-1.64h2.4v6.2h-2.4v-1.53c0-2.15-1.5-3.23-4.48-3.23a5.5,5.5,0,0,0-3.18.79,2.79,2.79,0,0,0-1.14,2.48,3.23,3.23,0,0,0,.92,2.36,4.9,4.9,0,0,0,2.52,1.31l2.24.48a9.3,9.3,0,0,1,4.62,2.12,5.44,5.44,0,0,1,1.54,4.11,5.77,5.77,0,0,1-.5,2.38,5.85,5.85,0,0,1-1.44,1.92,6.81,6.81,0,0,1-2.28,1.27A9.37,9.37,0,0,1,715.29,453.61Z"/><path class="cls-1" d="M735.89,453.61a9.52,9.52,0,0,1-3.94-.78,8.2,8.2,0,0,1-2.94-2.18,9.5,9.5,0,0,1-1.84-3.4,14.39,14.39,0,0,1-.64-4.44,13,13,0,0,1,.7-4.38,10.55,10.55,0,0,1,1.92-3.42,8.37,8.37,0,0,1,2.9-2.22,8.61,8.61,0,0,1,3.68-.78,8.79,8.79,0,0,1,3.64.72,7.76,7.76,0,0,1,2.7,2,9.43,9.43,0,0,1,1.7,3.11,12.47,12.47,0,0,1,.6,3.94v.92h-14.2v1a7.81,7.81,0,0,0,1.7,5.33,5.71,5.71,0,0,0,4.54,1.95,6.86,6.86,0,0,0,3.94-1,7.2,7.2,0,0,0,2.3-2.65l1.32.84a9.45,9.45,0,0,1-1.1,2,8.15,8.15,0,0,1-1.7,1.72,8.6,8.6,0,0,1-2.32,1.19A8.88,8.88,0,0,1,735.89,453.61Zm-5.72-12.72h10.76v-.4a10.72,10.72,0,0,0-.3-2.6,6.1,6.1,0,0,0-.94-2.08,4.7,4.7,0,0,0-1.62-1.38,5.18,5.18,0,0,0-2.34-.5,5.65,5.65,0,0,0-2.4.48,4.68,4.68,0,0,0-1.74,1.36,6.1,6.1,0,0,0-1.06,2.06,8.84,8.84,0,0,0-.36,2.58Z"/><path class="cls-1" d="M748,451.29h3V434.41h-3v-1.92h3v-3.24a7,7,0,0,1,.48-2.64,5.93,5.93,0,0,1,1.34-2.06,6.08,6.08,0,0,1,2-1.34,6.74,6.74,0,0,1,2.58-.48,6.09,6.09,0,0,1,3.42.84,2.68,2.68,0,0,1,1.26,2.38,2.34,2.34,0,0,1-.58,1.65,2,2,0,0,1-1.5.61,1.88,1.88,0,0,1-2-1.92,1.79,1.79,0,0,1,1.08-1.84v-.08a4.89,4.89,0,0,0-.64-.12c-.24,0-.51,0-.8,0a3,3,0,0,0-2.56,1.21,5.6,5.6,0,0,0-.88,3.37v3.7h4.48v1.92h-4.48v16.88H758v1.84H748Z"/><path class="cls-1" d="M767.93,453.37a3.92,3.92,0,0,1-2.92-.86,4.27,4.27,0,0,1-.8-2.95V434.41h-2.64v-1.92h.36a6,6,0,0,0,1.34-.12,2.19,2.19,0,0,0,.8-.34,1.28,1.28,0,0,0,.44-.56,6.46,6.46,0,0,0,.26-.78l.92-3.56h1.8v5.36h5.32v1.92h-5.32v16.76h5.32v1.32a4.31,4.31,0,0,1-.9.36,10.67,10.67,0,0,1-1.2.28q-.66.12-1.38.18C768.85,453.35,768.38,453.37,767.93,453.37Z"/><path class="cls-1" d="M785.13,453.61a9.52,9.52,0,0,1-3.94-.78,8.2,8.2,0,0,1-2.94-2.18,9.5,9.5,0,0,1-1.84-3.4,14.39,14.39,0,0,1-.64-4.44,13,13,0,0,1,.7-4.38,10.55,10.55,0,0,1,1.92-3.42,8.37,8.37,0,0,1,2.9-2.22A8.61,8.61,0,0,1,785,432a8.79,8.79,0,0,1,3.64.72,7.76,7.76,0,0,1,2.7,2,9.43,9.43,0,0,1,1.7,3.11,12.47,12.47,0,0,1,.6,3.94v.92h-14.2v1a7.81,7.81,0,0,0,1.7,5.33,5.71,5.71,0,0,0,4.54,1.95,6.86,6.86,0,0,0,3.94-1,7.2,7.2,0,0,0,2.3-2.65l1.32.84a9.45,9.45,0,0,1-1.1,2,8.15,8.15,0,0,1-1.7,1.72,8.6,8.6,0,0,1-2.32,1.19A8.88,8.88,0,0,1,785.13,453.61Zm-5.72-12.72h10.76v-.4a10.72,10.72,0,0,0-.3-2.6,6.1,6.1,0,0,0-.94-2.08,4.7,4.7,0,0,0-1.62-1.38,5.18,5.18,0,0,0-2.34-.5,5.65,5.65,0,0,0-2.4.48,4.68,4.68,0,0,0-1.74,1.36,6.1,6.1,0,0,0-1.06,2.06,8.84,8.84,0,0,0-.36,2.58Z"/><path class="cls-1" d="M797.41,451.29h3v-16.2l-3-.52v-1.36l6.16-1.2v3.6h.2a9.47,9.47,0,0,1,.69-1.28,6,6,0,0,1,1-1.16,5.3,5.3,0,0,1,1.45-.84,5.21,5.21,0,0,1,1.9-.32,4.42,4.42,0,0,1,2.82.84,3,3,0,0,1,1.06,2.44,2.69,2.69,0,0,1-.61,1.88,2,2,0,0,1-1.55.68,2.44,2.44,0,0,1-1.72-.58,1.9,1.9,0,0,1-.64-1.5,2.34,2.34,0,0,1,.33-1.3,1.28,1.28,0,0,1,.79-.58v-.08l-.41-.06-.59,0a3.73,3.73,0,0,0-1.68.42,5.42,5.42,0,0,0-1.5,1.08,5.73,5.73,0,0,0-1.08,1.5,3.73,3.73,0,0,0-.42,1.68v12.88h3.76v1.84h-10Z"/><path class="cls-1" d="M823.21,453.61a6.67,6.67,0,0,1-3.29-.77,4.12,4.12,0,0,1-1.84-1.71h-.16v2h-2.39v-6.2h2.39v.85A3.85,3.85,0,0,0,819,450.6a4.87,4.87,0,0,0,3.57,1.09,6.49,6.49,0,0,0,3.54-.82,3,3,0,0,0,1.26-2.65q0-2.82-3.41-3.58l-2.39-.53a8.64,8.64,0,0,1-4.46-2.15,5.67,5.67,0,0,1-1.5-4.16,5.16,5.16,0,0,1,1.88-4.25,7.68,7.68,0,0,1,5-1.54,7.33,7.33,0,0,1,3.14.59,3.12,3.12,0,0,1,1.62,1.53h.16v-1.64h2.39v6.2h-2.39v-1.53q0-3.23-4.49-3.23a5.46,5.46,0,0,0-3.17.79,2.8,2.8,0,0,0-1.15,2.48,3.23,3.23,0,0,0,.93,2.36,4.91,4.91,0,0,0,2.51,1.31l2.25.48a9.3,9.3,0,0,1,4.62,2.12,5.44,5.44,0,0,1,1.54,4.11,5.55,5.55,0,0,1-2,4.3,6.62,6.62,0,0,1-2.28,1.27A9.27,9.27,0,0,1,823.21,453.61Z"/><path class="cls-1" d="M834,451.29h3V425.81l-3-.52v-1.4l6.24-1.16v20.92h.2l3.36-3.76,5-5.56h-2.72v-1.84h8.56v1.84H851.8l-5.8,6,7.24,10.92h2.28v1.84H847v-1.84h2.56l-5.8-8.72-3.48,3.64v5.08h3v1.84H834Z"/><path class="cls-1" d="M866.68,453.61a9.66,9.66,0,0,1-3.88-.76,8.23,8.23,0,0,1-3-2.18,10.24,10.24,0,0,1-1.92-3.4,14.9,14.9,0,0,1,0-8.9A10.34,10.34,0,0,1,859.8,435a8.47,8.47,0,0,1,3-2.18,10.28,10.28,0,0,1,7.76,0,8.3,8.3,0,0,1,3,2.18,10,10,0,0,1,1.92,3.42,14.9,14.9,0,0,1,0,8.9,9.91,9.91,0,0,1-1.92,3.4,8.07,8.07,0,0,1-3,2.18A9.59,9.59,0,0,1,866.68,453.61Zm0-1.92a6.06,6.06,0,0,0,2.58-.5,4.51,4.51,0,0,0,1.8-1.41,5.89,5.89,0,0,0,1-2.13,9.76,9.76,0,0,0,.34-2.67v-4.34a9.86,9.86,0,0,0-.34-2.67,5.89,5.89,0,0,0-1-2.13,4.69,4.69,0,0,0-1.8-1.41,7,7,0,0,0-5.18,0,4.85,4.85,0,0,0-1.78,1.41,6.23,6.23,0,0,0-1,2.13,10.27,10.27,0,0,0-.34,2.67V445a10.16,10.16,0,0,0,.34,2.67,6.23,6.23,0,0,0,1,2.13,4.66,4.66,0,0,0,1.78,1.41A6.06,6.06,0,0,0,866.68,451.69Z"/><path class="cls-1" d="M879.37,451.29h3V425.81l-3-.52v-1.4l6.23-1.16v28.56h3v1.84h-9.19Z"/><path class="cls-1" d="M901.12,453.61a9.56,9.56,0,0,1-3.94-.78,8.2,8.2,0,0,1-2.94-2.18,9.66,9.66,0,0,1-1.84-3.4,14.69,14.69,0,0,1-.64-4.44,13.24,13.24,0,0,1,.7-4.38,10.93,10.93,0,0,1,1.92-3.42,8.46,8.46,0,0,1,2.9-2.22A8.64,8.64,0,0,1,901,432a8.76,8.76,0,0,1,3.64.72,7.58,7.58,0,0,1,2.7,2,9.25,9.25,0,0,1,1.7,3.11,12.47,12.47,0,0,1,.6,3.94v.92H895.4v1a7.86,7.86,0,0,0,1.7,5.33,5.74,5.74,0,0,0,4.54,1.95,6.82,6.82,0,0,0,3.94-1,7.11,7.11,0,0,0,2.3-2.65l1.32.84a8.64,8.64,0,0,1-1.1,2,7.7,7.7,0,0,1-1.7,1.72,8.45,8.45,0,0,1-2.32,1.19A8.84,8.84,0,0,1,901.12,453.61Zm-5.72-12.72h10.76v-.4a10.72,10.72,0,0,0-.3-2.6,5.92,5.92,0,0,0-.94-2.08,4.52,4.52,0,0,0-1.62-1.38,5.12,5.12,0,0,0-2.34-.5,5.71,5.71,0,0,0-2.4.48,4.84,4.84,0,0,0-1.74,1.36,6.28,6.28,0,0,0-1.06,2.06,8.84,8.84,0,0,0-.36,2.58Z"/><path class="cls-1" d="M345.33,627.29h3V603.05h-3v-1.84h13.36a7.87,7.87,0,0,1,5.5,1.8,6.17,6.17,0,0,1,2,4.8,7.24,7.24,0,0,1-.44,2.64,6.38,6.38,0,0,1-1.18,2,6.06,6.06,0,0,1-1.68,1.36,5.63,5.63,0,0,1-1.94.68v.12a7.88,7.88,0,0,1,2.16.52,6.62,6.62,0,0,1,2,1.28,6.74,6.74,0,0,1,1.52,2.08,6.56,6.56,0,0,1,.6,2.88,9.07,9.07,0,0,1-.54,3.2,7.15,7.15,0,0,1-1.52,2.46,6.5,6.5,0,0,1-2.34,1.56,7.91,7.91,0,0,1-3,.54H345.33Zm6.44-13.56H358a4.31,4.31,0,0,0,3.32-1.24,4.4,4.4,0,0,0,1.16-3.16v-1.76a4.42,4.42,0,0,0-1.16-3.16,4.34,4.34,0,0,0-3.32-1.24h-6.24Zm0,13.44h6.88a4.76,4.76,0,0,0,3.62-1.36,4.86,4.86,0,0,0,1.3-3.52v-1.76a4.58,4.58,0,0,0-4.92-4.84h-6.88Z"/><path class="cls-1" d="M381.09,629.61a9.52,9.52,0,0,1-3.94-.78,8.2,8.2,0,0,1-2.94-2.18,9.66,9.66,0,0,1-1.84-3.4,14.69,14.69,0,0,1-.64-4.44,13,13,0,0,1,.7-4.38,10.93,10.93,0,0,1,1.92-3.42,8.37,8.37,0,0,1,2.9-2.22,8.64,8.64,0,0,1,3.68-.78,8.79,8.79,0,0,1,3.64.72,7.58,7.58,0,0,1,2.7,2,9.43,9.43,0,0,1,1.7,3.11,12.47,12.47,0,0,1,.6,3.94v.92h-14.2v1a7.86,7.86,0,0,0,1.7,5.33,5.74,5.74,0,0,0,4.54,1.95,6.84,6.84,0,0,0,3.94-1,7.11,7.11,0,0,0,2.3-2.65l1.32.84a9,9,0,0,1-1.1,2,7.7,7.7,0,0,1-1.7,1.72,8.45,8.45,0,0,1-2.32,1.19A8.88,8.88,0,0,1,381.09,629.61Zm-5.72-12.72h10.76v-.4a10.72,10.72,0,0,0-.3-2.6,5.92,5.92,0,0,0-.94-2.08,4.7,4.7,0,0,0-1.62-1.38,5.12,5.12,0,0,0-2.34-.5,5.68,5.68,0,0,0-2.4.48,4.84,4.84,0,0,0-1.74,1.36,6.1,6.1,0,0,0-1.06,2.06,8.84,8.84,0,0,0-.36,2.58Z"/><path class="cls-1" d="M392.77,627.29h3V601.81l-3-.52v-1.4l6.24-1.16v28.56h3v1.84h-9.2Z"/><path class="cls-1" d="M404.77,627.29h3V601.81l-3-.52v-1.4l6.24-1.16v28.56h3v1.84h-9.2Z"/><path class="cls-1" d="M423.49,629.61a6.37,6.37,0,0,1-4.5-1.5,5.3,5.3,0,0,1-1.62-4.1,6.73,6.73,0,0,1,.48-2.62,4.37,4.37,0,0,1,1.58-1.9,8.41,8.41,0,0,1,2.86-1.16,20,20,0,0,1,4.28-.4h3v-3a5.38,5.38,0,0,0-1.18-3.74,4.58,4.58,0,0,0-3.54-1.3,9.64,9.64,0,0,0-1.92.18,4.92,4.92,0,0,0-1.44.5v.08a3.26,3.26,0,0,1,.86.72,2,2,0,0,1,.42,1.36,2.13,2.13,0,0,1-.6,1.62,2.47,2.47,0,0,1-3.18,0,2.26,2.26,0,0,1-.62-1.74,3.13,3.13,0,0,1,.52-1.7,5.15,5.15,0,0,1,1.48-1.46,8.32,8.32,0,0,1,2.38-1,12.64,12.64,0,0,1,3.22-.38,7.17,7.17,0,0,1,5.06,1.68,6.12,6.12,0,0,1,1.82,4.72v13h3v1.4a4.06,4.06,0,0,1-1.18.56,5.37,5.37,0,0,1-1.66.24,3.15,3.15,0,0,1-2.4-.88,3.26,3.26,0,0,1-.84-2.36v-.28h-.2a6.42,6.42,0,0,1-.74,1.32,4.52,4.52,0,0,1-1.18,1.12,6.35,6.35,0,0,1-1.74.78A8.45,8.45,0,0,1,423.49,629.61Zm1.4-2.2a5.42,5.42,0,0,0,3.28-1,3.46,3.46,0,0,0,1.36-3v-3.88h-2.6a13.62,13.62,0,0,0-2.88.26,5.07,5.07,0,0,0-1.84.76,2.94,2.94,0,0,0-1,1.22,4.34,4.34,0,0,0-.3,1.68v.84a2.75,2.75,0,0,0,1,2.32A4.65,4.65,0,0,0,424.89,627.41Z"/><path class="cls-1" d="M438.61,627.29h3V601.81l-3-.52v-1.4l6.24-1.16v12.84H445a5.56,5.56,0,0,1,.72-1.24,5.65,5.65,0,0,1,1.22-1.16,6.56,6.56,0,0,1,1.72-.84,7.21,7.21,0,0,1,2.22-.32q3.72,0,5.32,1.94t1.6,5.82v11.52h3v1.84h-9.2v-1.84h3V616.05a6.82,6.82,0,0,0-1.16-4.34,4.49,4.49,0,0,0-3.68-1.42,6.41,6.41,0,0,0-1.74.24,4.92,4.92,0,0,0-1.56.76,4,4,0,0,0-1.12,1.28,3.68,3.68,0,0,0-.42,1.8v12.92h3v1.84h-9.2Z"/><path class="cls-1" d="M464.09,629.57l2.32-3.07a10.29,10.29,0,0,1-1.8-3.34,14.93,14.93,0,0,1,0-8.78,10,10,0,0,1,1.92-3.43,8.47,8.47,0,0,1,3-2.18,9.8,9.8,0,0,1,3.88-.76,9.12,9.12,0,0,1,5.72,1.85l2.24-2.88,1.4,1.08-2.32,3.06a10.39,10.39,0,0,1,1.8,3.34,15,15,0,0,1,0,8.81,10,10,0,0,1-1.92,3.4,8.35,8.35,0,0,1-3,2.18,9.63,9.63,0,0,1-3.88.76,9.11,9.11,0,0,1-5.72-1.84l-2.24,2.88Zm13.68-17.81a5,5,0,0,0-1.78-1.34,6,6,0,0,0-2.54-.49,6.22,6.22,0,0,0-2.6.5,4.85,4.85,0,0,0-1.78,1.41,6.14,6.14,0,0,0-1,2.13,9.88,9.88,0,0,0-.34,2.68V621a12.13,12.13,0,0,0,.12,1.75,6.14,6.14,0,0,0,.44,1.55Zm-4.32,15.93a6.22,6.22,0,0,0,2.58-.5,4.74,4.74,0,0,0,1.8-1.41,6.05,6.05,0,0,0,1-2.13,9.86,9.86,0,0,0,.34-2.67v-4.34a12.13,12.13,0,0,0-.12-1.75,6,6,0,0,0-.44-1.55l-9.52,12.53a5.07,5.07,0,0,0,1.78,1.34A6.12,6.12,0,0,0,473.45,627.69Z"/><path class="cls-1" d="M487.05,637.61a4.21,4.21,0,0,1-3-.89,2.93,2.93,0,0,1-1-2.25,2.18,2.18,0,0,1,.52-1.49,1.79,1.79,0,0,1,1.44-.61,1.68,1.68,0,0,1,1.34.52,2,2,0,0,1,.46,1.36,2.09,2.09,0,0,1-.26,1,1.14,1.14,0,0,1-.62.58V636a2.6,2.6,0,0,0,1,.16c1.65,0,2.48-1.06,2.48-3.19V611.09l-3-.52v-1.36l6.24-1.2v23.2a6.73,6.73,0,0,1-1.52,4.82A5.62,5.62,0,0,1,487.05,637.61Zm4.12-33.88a2,2,0,0,1-1.58-.62,2.19,2.19,0,0,1-.54-1.5v-.2a2.23,2.23,0,0,1,.54-1.5,2,2,0,0,1,1.58-.62,2.06,2.06,0,0,1,1.6.62,2.2,2.2,0,0,1,.56,1.5v.2a2.16,2.16,0,0,1-.56,1.5A2,2,0,0,1,491.17,603.73Z"/><path class="cls-1" d="M506.93,629.61a6.63,6.63,0,0,1-3.28-.77,4.06,4.06,0,0,1-1.84-1.71h-.16v2h-2.4v-6.2h2.4v.85a3.81,3.81,0,0,0,1.08,2.82,4.86,4.86,0,0,0,3.56,1.09,6.44,6.44,0,0,0,3.54-.82,3,3,0,0,0,1.26-2.65q0-2.82-3.4-3.58l-2.4-.53a8.68,8.68,0,0,1-4.46-2.15,5.67,5.67,0,0,1-1.5-4.16,5.19,5.19,0,0,1,1.88-4.25,7.68,7.68,0,0,1,5-1.54,7.27,7.27,0,0,1,3.14.59,3.12,3.12,0,0,1,1.62,1.53h.16v-1.64h2.4v6.2h-2.4v-1.53q0-3.23-4.48-3.23a5.5,5.5,0,0,0-3.18.79,2.79,2.79,0,0,0-1.14,2.48,3.27,3.27,0,0,0,.92,2.36,4.9,4.9,0,0,0,2.52,1.31l2.24.48a9.3,9.3,0,0,1,4.62,2.12,5.4,5.4,0,0,1,1.54,4.11,5.77,5.77,0,0,1-.5,2.38,5.58,5.58,0,0,1-1.44,1.92,6.81,6.81,0,0,1-2.28,1.27A9.29,9.29,0,0,1,506.93,629.61Z"/><path class="cls-1" d="M517.77,627.29h3V601.81l-3-.52v-1.4l6.24-1.16v20.92h.2l3.36-3.76,5-5.56h-2.72v-1.84h8.56v1.84h-2.92l-5.8,6L537,627.29h2.28v1.84h-8.52v-1.84h2.56l-5.8-8.72L524,622.21v5.08h3v1.84h-9.2Z"/><path class="cls-1" d="M550.41,629.61a9.63,9.63,0,0,1-3.88-.76,8.23,8.23,0,0,1-3-2.18,9.91,9.91,0,0,1-1.92-3.4,14.9,14.9,0,0,1,0-8.9,10,10,0,0,1,1.92-3.42,8.47,8.47,0,0,1,3-2.18,10.28,10.28,0,0,1,7.76,0,8.47,8.47,0,0,1,3,2.18,10,10,0,0,1,1.92,3.42,14.9,14.9,0,0,1,0,8.9,9.91,9.91,0,0,1-1.92,3.4,8.23,8.23,0,0,1-3,2.18A9.63,9.63,0,0,1,550.41,629.61Zm0-1.92a6.09,6.09,0,0,0,2.58-.5,4.65,4.65,0,0,0,1.8-1.41,6.05,6.05,0,0,0,1-2.13,10.16,10.16,0,0,0,.34-2.67v-4.34a10.27,10.27,0,0,0-.34-2.67,6.05,6.05,0,0,0-1-2.13,4.84,4.84,0,0,0-1.8-1.41,6.25,6.25,0,0,0-2.58-.5,6.18,6.18,0,0,0-2.6.5,4.85,4.85,0,0,0-1.78,1.41,5.89,5.89,0,0,0-1,2.13,9.86,9.86,0,0,0-.34,2.67V621a9.76,9.76,0,0,0,.34,2.67,5.89,5.89,0,0,0,1,2.13,4.66,4.66,0,0,0,1.78,1.41A6,6,0,0,0,550.41,627.69Z"/><path class="cls-1" d="M563.09,627.29h3V601.81l-3-.52v-1.4l6.24-1.16v28.56h3v1.84h-9.2Z"/><path class="cls-1" d="M584.85,629.61a9.52,9.52,0,0,1-3.94-.78,8.2,8.2,0,0,1-2.94-2.18,9.5,9.5,0,0,1-1.84-3.4,14.39,14.39,0,0,1-.64-4.44,13,13,0,0,1,.7-4.38,10.55,10.55,0,0,1,1.92-3.42,8.37,8.37,0,0,1,2.9-2.22,8.61,8.61,0,0,1,3.68-.78,8.79,8.79,0,0,1,3.64.72,7.76,7.76,0,0,1,2.7,2,9.43,9.43,0,0,1,1.7,3.11,12.47,12.47,0,0,1,.6,3.94v.92h-14.2v1a7.86,7.86,0,0,0,1.7,5.33,5.71,5.71,0,0,0,4.54,1.95,6.86,6.86,0,0,0,3.94-1,7.2,7.2,0,0,0,2.3-2.65l1.32.84a9.45,9.45,0,0,1-1.1,2,8.15,8.15,0,0,1-1.7,1.72,8.6,8.6,0,0,1-2.32,1.19A8.88,8.88,0,0,1,584.85,629.61Zm-5.72-12.72h10.76v-.4a10.72,10.72,0,0,0-.3-2.6,6.1,6.1,0,0,0-.94-2.08,4.7,4.7,0,0,0-1.62-1.38,5.15,5.15,0,0,0-2.34-.5,5.65,5.65,0,0,0-2.4.48,4.68,4.68,0,0,0-1.74,1.36,6.1,6.1,0,0,0-1.06,2.06,8.84,8.84,0,0,0-.36,2.58Z"/><path class="cls-1" d="M346.33,788.29h3V764.05h-3v-1.84h9.44v1.84h-3v13.36h.16l3.72-4.2,8.4-9.16h-3.2v-1.84h8.6v1.84h-2.68l-8.64,9.32,9.64,14.92h2.76v1.84H362v-1.84h2.84l-8.08-12.44-4,4.28v8.16h3v1.84h-9.44Z"/><path class="cls-1" d="M379.93,790.61a6.37,6.37,0,0,1-4.5-1.5,5.3,5.3,0,0,1-1.62-4.1,6.73,6.73,0,0,1,.48-2.62,4.37,4.37,0,0,1,1.58-1.9,8.41,8.41,0,0,1,2.86-1.16,20,20,0,0,1,4.28-.4h3v-3a5.38,5.38,0,0,0-1.18-3.74,4.58,4.58,0,0,0-3.54-1.3,9.64,9.64,0,0,0-1.92.18,4.92,4.92,0,0,0-1.44.5v.08a3.26,3.26,0,0,1,.86.72,2,2,0,0,1,.42,1.36,2.13,2.13,0,0,1-.6,1.62,2.47,2.47,0,0,1-3.18,0,2.26,2.26,0,0,1-.62-1.74,3.21,3.21,0,0,1,.52-1.7,5.15,5.15,0,0,1,1.48-1.46,8.44,8.44,0,0,1,2.38-1,12.64,12.64,0,0,1,3.22-.38,7.17,7.17,0,0,1,5.06,1.68,6.12,6.12,0,0,1,1.82,4.72v13h3v1.4a4.06,4.06,0,0,1-1.18.56,5.37,5.37,0,0,1-1.66.24,3.15,3.15,0,0,1-2.4-.88,3.26,3.26,0,0,1-.84-2.36v-.28H386a6,6,0,0,1-.74,1.32,4.52,4.52,0,0,1-1.18,1.12,6.35,6.35,0,0,1-1.74.78A8.45,8.45,0,0,1,379.93,790.61Zm1.4-2.2a5.4,5.4,0,0,0,3.28-1,3.46,3.46,0,0,0,1.36-3v-3.88h-2.6a13.62,13.62,0,0,0-2.88.26,5.07,5.07,0,0,0-1.84.76,2.94,2.94,0,0,0-1,1.22,4.34,4.34,0,0,0-.3,1.68v.84a2.75,2.75,0,0,0,1,2.32A4.65,4.65,0,0,0,381.33,788.41Z"/><path class="cls-1" d="M401.33,790.37a3.93,3.93,0,0,1-2.92-.86,4.32,4.32,0,0,1-.8-3V771.41H395v-1.92h.36a6,6,0,0,0,1.34-.12,2.19,2.19,0,0,0,.8-.34,1.22,1.22,0,0,0,.44-.56,6.46,6.46,0,0,0,.26-.78l.92-3.56h1.8v5.36h5.32v1.92h-5.32v16.76h5.32v1.32a4.31,4.31,0,0,1-.9.36,10.67,10.67,0,0,1-1.2.28q-.66.12-1.38.18C402.25,790.35,401.78,790.37,401.33,790.37Z"/><path class="cls-1" d="M409.37,788.29h3v-16.2l-3-.52v-1.36l6.16-1.2v3.6h.2a9.57,9.57,0,0,1,.7-1.28,5.66,5.66,0,0,1,1-1.16,5.1,5.1,0,0,1,1.44-.84,5.29,5.29,0,0,1,1.9-.32,4.42,4.42,0,0,1,2.82.84,2.93,2.93,0,0,1,1.06,2.44,2.74,2.74,0,0,1-.6,1.88,2,2,0,0,1-1.56.68,2.45,2.45,0,0,1-1.72-.58,1.9,1.9,0,0,1-.64-1.5,2.26,2.26,0,0,1,.34-1.3,1.29,1.29,0,0,1,.78-.58v-.08l-.4-.06-.6,0a3.73,3.73,0,0,0-1.68.42,5.75,5.75,0,0,0-2.58,2.58,3.73,3.73,0,0,0-.42,1.68v12.88h3.76v1.84h-10Z"/><path class="cls-1" d="M427.09,788.29h3v-16.2l-3-.52v-1.36l6.24-1.2v19.28h3v1.84h-9.2Zm4.6-23.56a2,2,0,0,1-1.58-.62,2.19,2.19,0,0,1-.54-1.5v-.2a2.23,2.23,0,0,1,.54-1.5,2,2,0,0,1,1.58-.62,2.06,2.06,0,0,1,1.6.62,2.2,2.2,0,0,1,.56,1.5v.2a2.16,2.16,0,0,1-.56,1.5A2,2,0,0,1,431.69,764.73Z"/><path class="cls-1" d="M439.69,788.29h3v-16.2l-3-.52v-1.36l6.16-1.2v3.6H446a5.33,5.33,0,0,1,.74-1.24,6,6,0,0,1,1.24-1.16,7.06,7.06,0,0,1,1.74-.86,6.72,6.72,0,0,1,2.2-.34q3.72,0,5.34,1.94t1.62,5.82v11.52h3v1.84h-9.2v-1.84h3V777.05q0-5.76-4.84-5.76a6.41,6.41,0,0,0-1.74.24,4.92,4.92,0,0,0-1.56.76,4,4,0,0,0-1.12,1.28,3.68,3.68,0,0,0-.42,1.8v12.92h3v1.84h-9.2Z"/><path class="cls-1" d="M474.41,790.61a9.52,9.52,0,0,1-3.94-.78,8.2,8.2,0,0,1-2.94-2.18,9.66,9.66,0,0,1-1.84-3.4,14.39,14.39,0,0,1-.64-4.44,13,13,0,0,1,.7-4.38,10.93,10.93,0,0,1,1.92-3.42,8.37,8.37,0,0,1,2.9-2.22,8.64,8.64,0,0,1,3.68-.78,8.79,8.79,0,0,1,3.64.72,7.58,7.58,0,0,1,2.7,2,9.43,9.43,0,0,1,1.7,3.11,12.47,12.47,0,0,1,.6,3.94v.92h-14.2v1a7.86,7.86,0,0,0,1.7,5.33,5.72,5.72,0,0,0,4.54,1.95,6.84,6.84,0,0,0,3.94-1,7.2,7.2,0,0,0,2.3-2.65l1.32.84a9,9,0,0,1-1.1,2,7.92,7.92,0,0,1-1.7,1.72,8.6,8.6,0,0,1-2.32,1.19A8.88,8.88,0,0,1,474.41,790.61Zm-5.72-12.72h10.76v-.4a10.72,10.72,0,0,0-.3-2.6,5.92,5.92,0,0,0-.94-2.08,4.7,4.7,0,0,0-1.62-1.38,5.12,5.12,0,0,0-2.34-.5,5.65,5.65,0,0,0-2.4.48,4.84,4.84,0,0,0-1.74,1.36,6.1,6.1,0,0,0-1.06,2.06,8.84,8.84,0,0,0-.36,2.58Z"/><path class="cls-1" d="M495.53,790.61a7.54,7.54,0,0,1-6.14-2.78q-2.29-2.77-2.3-8t2.3-8a7.57,7.57,0,0,1,6.14-2.78,6.73,6.73,0,0,1,3.9,1,6.28,6.28,0,0,1,2.18,2.52h.16v-9.76l-3-.52v-1.4l6.28-1.16v27.8l3,.52v1.36l-6.24,1.2V787h-.16a6.29,6.29,0,0,1-2.16,2.54A6.57,6.57,0,0,1,495.53,790.61Zm1-2.28a6.71,6.71,0,0,0,1.92-.28,5.44,5.44,0,0,0,1.7-.8,4.15,4.15,0,0,0,1.2-1.3,3.33,3.33,0,0,0,.46-1.74v-8.8a3.33,3.33,0,0,0-.46-1.74,4.26,4.26,0,0,0-1.2-1.3,5.93,5.93,0,0,0-1.7-.8,7.08,7.08,0,0,0-1.92-.28,5.28,5.28,0,0,0-4.3,1.86,7.55,7.55,0,0,0-1.54,5v3.36a7.55,7.55,0,0,0,1.54,5A5.28,5.28,0,0,0,496.49,788.33Z"/><path class="cls-1" d="M517.53,790.61a6.37,6.37,0,0,1-4.5-1.5,5.3,5.3,0,0,1-1.62-4.1,6.73,6.73,0,0,1,.48-2.62,4.37,4.37,0,0,1,1.58-1.9,8.41,8.41,0,0,1,2.86-1.16,20,20,0,0,1,4.28-.4h3v-3a5.38,5.38,0,0,0-1.18-3.74,4.58,4.58,0,0,0-3.54-1.3,9.64,9.64,0,0,0-1.92.18,4.92,4.92,0,0,0-1.44.5v.08a3.26,3.26,0,0,1,.86.72,2,2,0,0,1,.42,1.36,2.13,2.13,0,0,1-.6,1.62,2.47,2.47,0,0,1-3.18,0,2.26,2.26,0,0,1-.62-1.74,3.13,3.13,0,0,1,.52-1.7,5.15,5.15,0,0,1,1.48-1.46,8.32,8.32,0,0,1,2.38-1A12.64,12.64,0,0,1,520,769a7.17,7.17,0,0,1,5.06,1.68,6.12,6.12,0,0,1,1.82,4.72v13h3v1.4a4.06,4.06,0,0,1-1.18.56,5.37,5.37,0,0,1-1.66.24,3.15,3.15,0,0,1-2.4-.88,3.26,3.26,0,0,1-.84-2.36v-.28h-.2a6.92,6.92,0,0,1-.74,1.32,4.52,4.52,0,0,1-1.18,1.12,6.35,6.35,0,0,1-1.74.78A8.45,8.45,0,0,1,517.53,790.61Zm1.4-2.2a5.42,5.42,0,0,0,3.28-1,3.46,3.46,0,0,0,1.36-3v-3.88H521a13.62,13.62,0,0,0-2.88.26,5.07,5.07,0,0,0-1.84.76,2.86,2.86,0,0,0-1,1.22,4.34,4.34,0,0,0-.3,1.68v.84a2.75,2.75,0,0,0,1,2.32A4.65,4.65,0,0,0,518.93,788.41Z"/><path class="cls-1" d="M532.65,788.29h3V762.81l-3-.52v-1.4l6.24-1.16v28.56h3v1.84h-9.2Z"/><path class="cls-1" d="M553.33,790.61a6.6,6.6,0,0,1-3.28-.77,4,4,0,0,1-1.84-1.71h-.16v2h-2.4v-6.2h2.4v.85a3.81,3.81,0,0,0,1.08,2.82,4.85,4.85,0,0,0,3.56,1.09,6.44,6.44,0,0,0,3.54-.82,3,3,0,0,0,1.26-2.65c0-1.88-1.14-3.07-3.4-3.58l-2.4-.53a8.64,8.64,0,0,1-4.46-2.15,5.67,5.67,0,0,1-1.5-4.16,5.16,5.16,0,0,1,1.88-4.25,7.68,7.68,0,0,1,5-1.54,7.3,7.3,0,0,1,3.14.59,3.12,3.12,0,0,1,1.62,1.53h.16v-1.64H560v6.2h-2.4v-1.53c0-2.15-1.5-3.23-4.48-3.23a5.5,5.5,0,0,0-3.18.79,2.79,2.79,0,0,0-1.14,2.48,3.23,3.23,0,0,0,.92,2.36,4.9,4.9,0,0,0,2.52,1.31l2.24.48a9.3,9.3,0,0,1,4.62,2.12,5.44,5.44,0,0,1,1.54,4.11,5.77,5.77,0,0,1-.5,2.38,5.85,5.85,0,0,1-1.44,1.92,6.81,6.81,0,0,1-2.28,1.27A9.37,9.37,0,0,1,553.33,790.61Z"/><path class="cls-1" d="M582.13,790.61a6.6,6.6,0,0,1-3.28-.77,4,4,0,0,1-1.84-1.71h-.16v2h-2.4v-6.2h2.4v.85a3.81,3.81,0,0,0,1.08,2.82,4.85,4.85,0,0,0,3.56,1.09,6.44,6.44,0,0,0,3.54-.82,3,3,0,0,0,1.26-2.65c0-1.88-1.14-3.07-3.4-3.58l-2.4-.53A8.64,8.64,0,0,1,576,779a5.67,5.67,0,0,1-1.5-4.16,5.16,5.16,0,0,1,1.88-4.25,7.68,7.68,0,0,1,5-1.54,7.3,7.3,0,0,1,3.14.59,3.12,3.12,0,0,1,1.62,1.53h.16v-1.64h2.4v6.2h-2.4v-1.53c0-2.15-1.5-3.23-4.48-3.23a5.5,5.5,0,0,0-3.18.79,2.79,2.79,0,0,0-1.14,2.48,3.23,3.23,0,0,0,.92,2.36,4.9,4.9,0,0,0,2.52,1.31l2.24.48a9.3,9.3,0,0,1,4.62,2.12,5.44,5.44,0,0,1,1.54,4.11,5.77,5.77,0,0,1-.5,2.38,5.85,5.85,0,0,1-1.44,1.92,6.81,6.81,0,0,1-2.28,1.27A9.37,9.37,0,0,1,582.13,790.61Z"/><path class="cls-1" d="M593,788.29h3V762.81l-3-.52v-1.4l6.24-1.16v20.92h.2l3.36-3.76,5-5.56h-2.72v-1.84h8.56v1.84h-2.92l-5.8,6,7.24,10.92h2.28v1.84h-8.52v-1.84h2.56l-5.8-8.72-3.48,3.64v5.08h3v1.84H593Z"/><path class="cls-1" d="M625.61,790.61a9.59,9.59,0,0,1-3.88-.76,8.07,8.07,0,0,1-3-2.18,9.91,9.91,0,0,1-1.92-3.4,14.9,14.9,0,0,1,0-8.9,10,10,0,0,1,1.92-3.42,8.3,8.3,0,0,1,3-2.18,10.28,10.28,0,0,1,7.76,0,8.47,8.47,0,0,1,3,2.18,10.34,10.34,0,0,1,1.92,3.42,14.9,14.9,0,0,1,0,8.9,10.24,10.24,0,0,1-1.92,3.4,8.23,8.23,0,0,1-3,2.18A9.66,9.66,0,0,1,625.61,790.61Zm0-1.92a6.12,6.12,0,0,0,2.58-.5,4.65,4.65,0,0,0,1.8-1.41,6.23,6.23,0,0,0,1-2.13,10.16,10.16,0,0,0,.34-2.67v-4.34A10.27,10.27,0,0,0,631,775a6.23,6.23,0,0,0-1-2.13,4.84,4.84,0,0,0-1.8-1.41,6.28,6.28,0,0,0-2.58-.5,6.18,6.18,0,0,0-2.6.5,4.77,4.77,0,0,0-1.78,1.41,5.89,5.89,0,0,0-1,2.13,9.86,9.86,0,0,0-.34,2.67V782a9.76,9.76,0,0,0,.34,2.67,5.89,5.89,0,0,0,1,2.13,4.58,4.58,0,0,0,1.78,1.41A6,6,0,0,0,625.61,788.69Z"/><path class="cls-1" d="M638.29,788.29h3V762.81l-3-.52v-1.4l6.24-1.16v28.56h3v1.84h-9.2Z"/><path class="cls-1" d="M660.05,790.61a9.52,9.52,0,0,1-3.94-.78,8.2,8.2,0,0,1-2.94-2.18,9.5,9.5,0,0,1-1.84-3.4,14.39,14.39,0,0,1-.64-4.44,13,13,0,0,1,.7-4.38,10.55,10.55,0,0,1,1.92-3.42,8.37,8.37,0,0,1,2.9-2.22,8.61,8.61,0,0,1,3.68-.78,8.79,8.79,0,0,1,3.64.72,7.76,7.76,0,0,1,2.7,2,9.43,9.43,0,0,1,1.7,3.11,12.47,12.47,0,0,1,.6,3.94v.92h-14.2v1a7.81,7.81,0,0,0,1.7,5.33,5.71,5.71,0,0,0,4.54,1.95,6.86,6.86,0,0,0,3.94-1,7.2,7.2,0,0,0,2.3-2.65l1.32.84a9.45,9.45,0,0,1-1.1,2,8.15,8.15,0,0,1-1.7,1.72,8.6,8.6,0,0,1-2.32,1.19A8.88,8.88,0,0,1,660.05,790.61Zm-5.72-12.72h10.76v-.4a10.72,10.72,0,0,0-.3-2.6,6.1,6.1,0,0,0-.94-2.08,4.7,4.7,0,0,0-1.62-1.38,5.18,5.18,0,0,0-2.34-.5,5.65,5.65,0,0,0-2.4.48,4.68,4.68,0,0,0-1.74,1.36,6.1,6.1,0,0,0-1.06,2.06,8.84,8.84,0,0,0-.36,2.58Z"/></svg>